<svg xmlns="http://www.w3.org/2000/svg" viewBox="0 0 130.19 66.75"><defs><style>.\35 ab36d0f-e847-44a7-bd35-b94d8f78d20b{fill:#144733;}</style></defs><title>Ahmad</title><g id="02d9d136-06dd-4419-a79f-22620ecddafa" data-name="Layer 2"><g id="903317f8-81a6-41c5-bec9-dedec7ffc929" data-name="Layer 2"><path class="5ab36d0f-e847-44a7-bd35-b94d8f78d20b" d="M66,16.61"/><path class="5ab36d0f-e847-44a7-bd35-b94d8f78d20b" d="M66.39,16.85"/><path class="5ab36d0f-e847-44a7-bd35-b94d8f78d20b" d="M119,66.57H.17V21.66H26.82a35.78,35.78,0,0,1,65.6,0H119ZM1,65.74H118.14V22.49H91.87l-.11-.25a34.95,34.95,0,0,0-64.28,0l-.11.25H1Z"/><path class="5ab36d0f-e847-44a7-bd35-b94d8f78d20b" d="M42.62,21c0,.22.17,0,.22.11a9.32,9.32,0,0,0,1.65.84c.14-.25-.42-.56,0-.64,1,.53,2.21.48,3,1.46.45.48.67,1.15,1.29,1.49-.28-.81-.45-1.71-.81-2.52h.2c1,.65,2.16,1.51,2.39,2.72l.17,1.12a7.81,7.81,0,0,0,1.68,1.37l.08-.08c-.17-.53-.39-1.07-.59-1.6a1.89,1.89,0,0,1,1.09.7,6.51,6.51,0,0,1,1.52,2.66,2.9,2.9,0,0,0,1.54.9l.06-.06a6.28,6.28,0,0,1-1-2.13c.06-.17.25-.08.37,0a18.6,18.6,0,0,0,3,2.75A.93.93,0,0,0,59,30c.25-.34-.42-.45-.45-.79.11-.14.28,0,.42.06.45.25,1,.7,1.49.23.28-.11.56-.5.84-.25-.06.34-.9.5-.45.84,1,.17,1.54-1,2.24-1.54l1.54-1.49.2,0a5.06,5.06,0,0,1-1.18,2.44c.23.17.45-.11.67-.17,1-.17,1.18-1.23,1.4-2A6.69,6.69,0,0,1,68,24.74a.54.54,0,0,1,.42,0c.2.28-.14.5-.22.78a2.78,2.78,0,0,0-.39,1.21,4.76,4.76,0,0,0,1.43-1.57c.34-.87.22-1.91,1-2.61l1.51-1.32c.14,0,.25.06.25.22L71.67,23l0,0c.92-1.26,2.38-1.43,3.59-2.16.06,0,.14,0,.17.06a2,2,0,0,0-.34.93l.11.06a18.41,18.41,0,0,1,2.86-1.26l.28.06c-.06.39-.5.7-.84,1-.62.65-1.65.25-2.33.73.14.31.53.25.81.34s.92-.06,1,.34a6.1,6.1,0,0,1-3.53,1.15c-.64,0-1.4-.56-1.93,0A4.28,4.28,0,0,0,70,25.33l.14.08a11.09,11.09,0,0,1,2.35,0c.08.06,0,.17-.05.22-1.26.56-2.19,1.91-3.76,1.77-.34,0-.79-.23-1.07,0l-1.34,1.21c0,.17.2.2.31.17a19.63,19.63,0,0,0,2.58-.06l0,.06A3.32,3.32,0,0,1,66,30.12c-.65,0-1.21-.34-1.88-.22a5,5,0,0,1-3,.5c-.65,0-1.32-.31-2,0a6.18,6.18,0,0,1-3-.34c-.73-.39-1.49.14-2.24.14a4.31,4.31,0,0,1-2.8-1l.11-.08A12.58,12.58,0,0,1,53.78,29s.11,0,.11-.08c-.7-.76-1.43-1.71-2.58-1.37a4.29,4.29,0,0,1-3.42-1.6.66.66,0,0,1,.48-.17c.7-.08,1.21.14,1.85.06.05-.11-.09-.23-.2-.31l-1.88-1.29c-.56-.08-1,.22-1.57.28a5.58,5.58,0,0,1-3.73-1.07c.06-.22.36-.2.59-.25a3.91,3.91,0,0,0,1.51-.42c-.28-.59-1.18-.14-1.71-.36-.76-.62-1.63-1.07-2.36-1.74,0-.05,0-.11.08-.11A5.36,5.36,0,0,1,42.62,21Zm34.77.11a3.28,3.28,0,0,0-1.32.76c0,.06.11.06.17.08a1.64,1.64,0,0,0,1.49-.84C77.67,20.92,77.5,21.06,77.39,21.06Zm-35.08.11,0,.11c.48.36.9,1.06,1.51.84A4.37,4.37,0,0,0,42.31,21.18ZM74,21.85h-.14a1.88,1.88,0,0,0-1.54,1.29C73,23,73.41,22.38,74,22Zm-28.29.22v.08a6.71,6.71,0,0,0,1.79,1.35l.08-.06A2.19,2.19,0,0,0,45.73,22.07Zm24.2,2c.17-.06.25-.22.34-.34.17-.48.59-.84.59-1.35A1.72,1.72,0,0,0,69.93,24.09Zm1.37-1.63a4.2,4.2,0,0,0-1,1.79,2.92,2.92,0,0,0,.78-1C71.25,23.05,71.41,22.72,71.3,22.47Zm1.65.67c-.08.06,0,.14,0,.17a16,16,0,0,0,1.82-.39A2.25,2.25,0,0,0,73,23.14Zm-23.55,0,0,.11L50,24.37h.08A1.64,1.64,0,0,0,49.4,23.11Zm-.5,0,.05.39a2.59,2.59,0,0,0,.79,1.18A3.19,3.19,0,0,0,48.9,23.14Zm-3.73.09a8.3,8.3,0,0,0,1.54.42c.11,0,.31,0,.25-.14A2.12,2.12,0,0,0,45.17,23.22Zm28.21.17c-.2.08-.5.08-.56.34a2,2,0,0,0,1.54.22,4.89,4.89,0,0,0,1.54-.73A8.4,8.4,0,0,0,73.38,23.39Zm-28.77,0c-.17.14-.45.06-.59.2a2.87,2.87,0,0,0,2.41.7c.22-.06.56-.08.65-.31A9.31,9.31,0,0,0,44.61,23.39Zm23,2a4.57,4.57,0,0,0-1.54,2c0,.22-.17.53,0,.67a4.46,4.46,0,0,0,1.62-2.66Zm1.26,1.07a4.18,4.18,0,0,0,2-.73A2.18,2.18,0,0,0,68.89,26.48Zm-19.4-.39-.14.17a6.34,6.34,0,0,0,2.19.62C51.06,26.25,50.16,26.34,49.49,26.08Zm19.4.76s-.06.11,0,.14a2.58,2.58,0,0,0,2.13-.9A9.55,9.55,0,0,0,68.89,26.84Zm-16.12-.53a2.05,2.05,0,0,0,.34,1c.22.25.34.67.67.73A2.17,2.17,0,0,0,52.77,26.31Zm-3.65.17-.06.08a2.32,2.32,0,0,0,1.65.73c.17-.06.45,0,.5-.2C50.55,26.81,49.82,26.73,49.12,26.48Zm6.62,1.68a2.74,2.74,0,0,0,.48.9c.39.39.84,1,1.46.9A14.76,14.76,0,0,0,55.74,28.16Zm8.21.2a6,6,0,0,0-1.49,1.43l0,.17a1.81,1.81,0,0,0,.81-.5C63.54,29.14,63.93,28.78,64,28.35Zm2.52.76a3.85,3.85,0,0,0-1.32.45,2.64,2.64,0,0,0,2.86-.2.15.15,0,0,0,0-.22A5.92,5.92,0,0,0,66.48,29.11Zm-11.69.48a4.26,4.26,0,0,0-2.58-.25c0,.28.31.25.48.39a2.14,2.14,0,0,0,2.13-.06Z"/><path class="5ab36d0f-e847-44a7-bd35-b94d8f78d20b" d="M60.06,17a6.35,6.35,0,0,1,2.85.8c1,.7,1.82,1.68,3,1.66.36-.2.31-.7.7-.84a12.33,12.33,0,0,0,3.08-.51.54.54,0,0,1,.53.39,5.7,5.7,0,0,1-3.2,5.58,8.22,8.22,0,0,1-2,.59,14.59,14.59,0,0,1-2,1.49c-.28.53.53.68.53,1.14s-1,.48-1,.48H56.57c-.2-.08-.48-.17-.5-.42,0-.53.87-.59.67-1.12a10.28,10.28,0,0,1-2.86-2.44,5.4,5.4,0,0,1-3.08-2.64,5.45,5.45,0,0,0-2.47-2.49c-.29-.43.85-.53.36-.93.25-.34.76-.08,1.09,0a5.53,5.53,0,0,1,2.52,2.1c.34.39.42-.11.73-.22A4.21,4.21,0,0,0,55.31,19a6.62,6.62,0,0,1,3.91-2v-.23a.85.85,0,1,1,.84,0ZM49.31,18a.47.47,0,0,1-.3.56c0,.22.22.25.37.39,1.65.93,1.74,2.78,3.25,3.81.28.17.56.48.9.39-.25-.84-.48-1.68-.73-2.52l-.45-.31C51.3,19.63,50.71,18.07,49.31,18Zm13.94.52H56.7l-1.58,1.15h9.39Zm6.14,0a8.33,8.33,0,0,1-2.52.36l-.14.14c-.06.25-.31.56-.06.79.22,0,.25-.28.42-.37l1.85-.28a.56.56,0,0,1,.42.36,4.37,4.37,0,0,1-2.19,3.56c-.51.39-1.46.2-1.57,1a3.71,3.71,0,0,0,2.19-.84,5.1,5.1,0,0,0,2-4.32C69.7,18.77,69.64,18.51,69.39,18.57Zm-.73,1-1.29.31-.42.62a12.81,12.81,0,0,1-.7,2.3l.06.17c.2.06.37-.08.56-.14a3.9,3.9,0,0,0,2.08-3.08A.28.28,0,0,0,68.66,19.61Zm-11,.56H56c0,2.25,1.14,6.14,2.8,6.14C57.77,24.3,57.64,20.17,57.64,20.17Zm-4.34,0a6.36,6.36,0,0,0,1.87,4.35,10.52,10.52,0,0,1-1-4.36Zm1.23,0c0,2.17.69,4.72,2.51,5.56a12.15,12.15,0,0,1-1.3-5.57Zm5.11-3.67a.46.46,0,1,0-.46-.46A.46.46,0,0,0,59.64,16.5Zm0-.46,3,2.15a5.35,5.35,0,0,0-5.75,0Zm-4.68,2a18.07,18.07,0,0,0,1.07,5.67c.11.28.28.69.76.67s.64-.39.76-.67a18.07,18.07,0,0,0,1.07-5.67Zm2.81,6.14c1.65,0,2.8-3.88,2.8-6.14H62S61.88,24.3,60.81,26.31Zm4.68-6.15a10.5,10.5,0,0,1-1,4.36,6.36,6.36,0,0,0,1.87-4.35Zm-1.59,0a12.15,12.15,0,0,1-1.3,5.57c1.82-.83,2.51-3.39,2.51-5.56Zm-1.06,7.31a.15.15,0,0,0,.15-.15h0a.15.15,0,0,0-.15-.15h-6a.15.15,0,0,0-.15.15h0a.15.15,0,0,0,.15.15Zm-3-.15-2.51-.92c-.26,0-.39.54-.39.54l1.63,0A5.87,5.87,0,0,0,57.33,26.4Zm3.73.52,1.63,0s-.12-.54-.39-.54A5.88,5.88,0,0,0,61.06,26.93Z"/><path class="5ab36d0f-e847-44a7-bd35-b94d8f78d20b" d="M123.3,28.15a3.42,3.42,0,1,1,3.43,3.38A3.37,3.37,0,0,1,123.3,28.15ZM126.73,31A2.81,2.81,0,1,0,124,28.15,2.72,2.72,0,0,0,126.73,31ZM126,30.1h-.59V26.21h1.48c.92,0,1.38.34,1.38,1.11a1,1,0,0,1-1,1.07l1.11,1.71h-.66l-1-1.69H126Zm.7-2.19c.5,0,.95,0,.95-.63s-.44-.57-.85-.57H126v1.21Z"/><path class="5ab36d0f-e847-44a7-bd35-b94d8f78d20b" d="M126.73,31.58a3.42,3.42,0,1,1,3.46-3.43A3.42,3.42,0,0,1,126.73,31.58Zm0-6.75a3.33,3.33,0,1,0,3.36,3.32A3.31,3.31,0,0,0,126.73,24.83Zm0,6.19a2.86,2.86,0,1,1,2.78-2.87A2.77,2.77,0,0,1,126.73,31Zm0-5.62a2.76,2.76,0,1,0,2.68,2.75A2.67,2.67,0,0,0,126.73,25.39Zm1.74,4.76h-.78v0l-1-1.66h-.6v1.69h-.69v-4h1.53c1,0,1.42.38,1.42,1.16a1,1,0,0,1-1,1.11Zm-.72-.1h.54l-1.1-1.7h.08a1,1,0,0,0,1-1c0-.72-.42-1.06-1.33-1.06h-1.43v3.8H126V28.37h.75v0Zm-1-2.09H126v-1.3h.85c.22,0,.9,0,.9.62S127.14,28,126.72,28Zm-.66-.1h.66c.51,0,.9,0,.9-.59,0-.36-.25-.52-.8-.52h-.75Z"/><path class="5ab36d0f-e847-44a7-bd35-b94d8f78d20b" d="M92.53,21.49a36,36,0,0,0-65.83,0H0V66.75H119.14V21.49Zm-65,1.18.15-.36a34.77,34.77,0,0,1,64,0l.15.36H118v4H88.85a30.55,30.55,0,0,0-58.46,0H1.18v-4ZM1.18,65.57V60.85h36.6V57.57H1.18V29.89H32.9l.31-1.22a27.27,27.27,0,0,1,52.81,0l.32,1.22H118V57.57H81.35v3.27H118v4.72Z"/><path class="5ab36d0f-e847-44a7-bd35-b94d8f78d20b" d="M42.32,60.52h1.42v1.05H41.14V56.79h1.19Z"/><path class="5ab36d0f-e847-44a7-bd35-b94d8f78d20b" d="M48.14,57.84a1.3,1.3,0,0,1,1.29,1.26,1.3,1.3,0,1,1-2.58,0A1.3,1.3,0,0,1,48.14,57.84Zm0-1.2a2.55,2.55,0,1,0,2.52,2.46A2.49,2.49,0,0,0,48.14,56.63Z"/><path class="5ab36d0f-e847-44a7-bd35-b94d8f78d20b" d="M52.95,56.79h1.19l2.17,2.92h0V56.79h1.19v4.78H56.32l-2.17-2.93h0v2.93H52.95Z"/><path class="5ab36d0f-e847-44a7-bd35-b94d8f78d20b" d="M61.45,57.84h.28a1.34,1.34,0,0,1,0,2.68h-.27Zm-1.19,3.73h1.68a2.39,2.39,0,0,0,0-4.78H60.27Z"/><path class="5ab36d0f-e847-44a7-bd35-b94d8f78d20b" d="M68.63,57.84a1.3,1.3,0,0,1,1.29,1.26,1.3,1.3,0,1,1-2.58,0A1.3,1.3,0,0,1,68.63,57.84Zm0-1.2a2.55,2.55,0,1,0,2.52,2.46A2.48,2.48,0,0,0,68.63,56.63Z"/><path class="5ab36d0f-e847-44a7-bd35-b94d8f78d20b" d="M73.44,56.79h1.19l2.17,2.92h0V56.79H78v4.78H76.81l-2.17-2.93h0v2.93H73.44Z"/><path class="5ab36d0f-e847-44a7-bd35-b94d8f78d20b" d="M61.07,50,56.37,35.21l0-.14h-.63L51.53,46.34c-1.09,3-1.39,3.44-2.3,3.63l-.16,0v.71H53V50l-.16,0a1.34,1.34,0,0,1-1-.57.86.86,0,0,1-.08-.74l.06-.19,1.06-2.88h3.56l1,3.17.38,1.2H56.63v.74H62V50Zm-5.8-10.78.32-.88L59.31,50h-.6Zm.91,5.53H53.23l1.58-4.29Z"/><path class="5ab36d0f-e847-44a7-bd35-b94d8f78d20b" d="M114.36,49.94l-4.71-14.76,0-.14H109l-4.16,11.27c-1.09,3-1.39,3.44-2.3,3.63l-.16,0v.71h3.9V50l-.16,0a1.34,1.34,0,0,1-1-.57.86.86,0,0,1-.08-.74l.06-.18,1.06-2.88h3.56l1,3.14.39,1.23h-1.22v.74h5.41v-.74Zm-5.8-10.78.32-.88,3.71,11.65H112Zm.91,5.53h-2.95l1.58-4.29Z"/><path class="5ab36d0f-e847-44a7-bd35-b94d8f78d20b" d="M16.33,50,11.62,35.23l0-.14h-.63L6.79,46.36c-1.09,3-1.39,3.44-2.3,3.63l-.16,0v.71h3.9V50l-.16,0a1.34,1.34,0,0,1-1-.57A.86.86,0,0,1,7,48.68l.06-.19,1.06-2.88h3.56l1,3.17.38,1.2H11.89v.74h5.41V50Zm-5.8-10.78.32-.88L14.56,50H14Zm.91,5.53H8.49l1.58-4.29Z"/><path class="5ab36d0f-e847-44a7-bd35-b94d8f78d20b" d="M32,36v-.75H26V36h1.32v6.35H23.09V36h1.3v-.75H18.33V36h1.31V50h-1.3v.75H24.4V50H23.09V43.3h4.18V50H26v.75H32V50H30.73V36Zm-3.93,0h.63V50h-.63Zm-7.63,0h.63V50h-.63Z"/><path class="5ab36d0f-e847-44a7-bd35-b94d8f78d20b" d="M46.84,50V38.11c0-1.85.18-2,1.09-2.13l.18,0v-.72H44.64l-3.28,9.08-3.51-9.08h-4.2V36h.19c.75,0,1,.37,1.42,1.23l0,.09v9.59s0,.1,0,.15a6.43,6.43,0,0,1-.2,2.06,1.3,1.3,0,0,1-1.12.81l-.16,0v.71H38v-.72l-.17,0c-1.16-.16-1.54-.49-1.55-3.69v-6.4l.13.33L39.84,49l0,.13h.52l3.24-9V50h-1.3v.74h5.79V50Zm-6.69-2.25-2-5.08-2-5.24A5.63,5.63,0,0,0,35.4,36h.81L40.43,46.9ZM45,50H44.4V38.12L45,36.43Z"/><path class="5ab36d0f-e847-44a7-bd35-b94d8f78d20b" d="M72.79,36.53c-1-1-2-1.3-3.95-1.3H63V36h1.23V50H63v.74h5.43a5.87,5.87,0,0,0,3.77-.89c1.82-1.22,3-4,3-6.95A8.62,8.62,0,0,0,72.79,36.53Zm-.07,6.36a13.74,13.74,0,0,0-.88-5.67,5.24,5.24,0,0,1,.51.72,10.79,10.79,0,0,1,1.16,5.11c0,2.6-.68,4.79-1.82,6C72.38,47.76,72.72,45.75,72.72,42.89Zm-.7,0a14,14,0,0,1-.83,5.52c-.52,1.13-1.31,1.54-3,1.54h-.87V36h1c1.48,0,2.07.23,2.62,1C71.65,38.12,72,40,72,42.92ZM65.52,50H65V36h.51Z"/><polygon class="5ab36d0f-e847-44a7-bd35-b94d8f78d20b" points="90.71 39.81 90.77 39.81 90.77 35.27 90.67 35.27 90.71 39.81"/><path class="5ab36d0f-e847-44a7-bd35-b94d8f78d20b" d="M90.67,35.27H79.93v4.54h.86v-1c0-2,.85-2.81,2.85-2.83V50H81.85v.74h7V50H87.09V36a3,3,0,0,1,2.1.62,2.85,2.85,0,0,1,.72,2.21v1h.8ZM85,50h-.55V36H85Z"/><path class="5ab36d0f-e847-44a7-bd35-b94d8f78d20b" d="M101,47.13c0,1.25-.12,1.7-.46,2.08-.53.55-1.43.77-3.1.77h-.86V43.1h.68c.93,0,1.53.05,1.81.34s.29.58.29,1.34v.95H100V40h-.74V41A1.22,1.22,0,0,1,99,42a2.57,2.57,0,0,1-1.78.4h-.73V36h.64a5,5,0,0,1,3.14.7c.49.41.65.81.65,2.38v.47h.74l0-4.29H92V36H93.3V50H92v.74h.2l9.29,0h.2l0-3.56v-.2H101ZM94.6,50H94V36h.56Z"/></g></g></svg>