<svg xmlns="http://www.w3.org/2000/svg" viewBox="0 0 123.73 25.16"><defs><style>.ddea7828-4b47-4c8d-a2ac-b32c994d7947{fill:#1b303d;}</style></defs><title>iTunes</title><g id="8f3cbfca-e79a-4055-9cad-45e1fa57b1c8" data-name="Layer 2"><g id="64386061-a700-4f00-94dc-d06000fd250b" data-name="Layer 2"><g id="0b9f208c-9bc3-48d3-aa3e-9a9eb63f02ec" data-name="iTunes"><path class="ddea7828-4b47-4c8d-a2ac-b32c994d7947" d="M117.35,18.65h4.53a2.18,2.18,0,0,0-2.22-2.3,2.29,2.29,0,0,0-2.31,2.3Zm6.28,2.7c-.25,1.64-1.85,2.77-3.9,2.77-2.63,0-4.27-1.76-4.27-4.6s1.64-4.68,4.19-4.68,4.08,1.72,4.08,4.47V20h-6.39v.11a2.36,2.36,0,0,0,2.44,2.56,2,2,0,0,0,2.09-1.27ZM110.47,15h1.77V16.5h0a2.16,2.16,0,0,1,2.18-1.63,2.8,2.8,0,0,1,.64.07v1.74a2.59,2.59,0,0,0-.83-.11,1.87,1.87,0,0,0-1.94,2.08V24h-1.86V15Zm-3.34,4.53c0-2-.89-3.11-2.4-3.11s-2.4,1.16-2.4,3.11.89,3.11,2.4,3.11,2.4-1.14,2.4-3.11Zm-6.7,0c0-2.85,1.68-4.64,4.29-4.64S109,16.64,109,19.49s-1.66,4.64-4.29,4.64-4.29-1.78-4.29-4.64Zm-2.63-6.67V15h1.72v1.47H97.81v5c0,.78.34,1.14,1.1,1.14a5.79,5.79,0,0,0,.61,0V24a5.18,5.18,0,0,1-1,.09c-1.83,0-2.55-.69-2.55-2.44V16.43H94.62V15h1.32V12.82ZM86.26,20.55c.14,1.23,1.33,2,3,2s2.69-.81,2.69-1.92-.68-1.54-2.29-1.94L88,18.35c-2.28-.55-3.34-1.62-3.34-3.35,0-2.14,1.87-3.61,4.52-3.61s4.42,1.47,4.48,3.61H91.81c-.11-1.24-1.14-2-2.63-2s-2.52.76-2.52,1.86c0,.88.65,1.39,2.26,1.79l1.37.34c2.55.6,3.61,1.63,3.61,3.44,0,2.32-1.85,3.78-4.79,3.78-2.75,0-4.61-1.42-4.73-3.67ZM76,14.86c2,0,3.44,1.11,3.49,2.71H77.7c-.08-.8-.76-1.29-1.79-1.29s-1.68.46-1.68,1.17c0,.54.45.9,1.39,1.14l1.52.35c1.82.44,2.51,1.11,2.51,2.44,0,1.63-1.55,2.75-3.76,2.75S72.32,23,72.19,21.38H74c.13.87.83,1.33,2,1.33s1.81-.46,1.81-1.18c0-.56-.34-.86-1.29-1.1L74.88,20c-1.63-.4-2.46-1.23-2.46-2.49,0-1.6,1.44-2.69,3.54-2.69Zm-11.21,3.8h4.53a2.18,2.18,0,0,0-2.22-2.3,2.29,2.29,0,0,0-2.31,2.3ZM71,21.35c-.25,1.64-1.85,2.77-3.9,2.77-2.63,0-4.27-1.76-4.27-4.6s1.64-4.68,4.19-4.68,4.08,1.72,4.08,4.47V20H64.74v.11a2.36,2.36,0,0,0,2.44,2.56,2,2,0,0,0,2.09-1.27ZM53.67,15h1.77V16.5h0a2.9,2.9,0,0,1,2.85-1.64c2,0,3.14,1.28,3.14,3.36V24H59.61V18.57c0-1.36-.63-2.12-1.94-2.12a2.1,2.1,0,0,0-2.14,2.34V24H53.67V15ZM51.83,24H50V22.46h0a2.83,2.83,0,0,1-2.81,1.66A3,3,0,0,1,44,20.77V15h1.86v5.45c0,1.38.65,2.11,1.94,2.11A2.1,2.1,0,0,0,50,20.17V15h1.86V24Zm-13.5,0V13.26h-3.8V11.59H44v1.66h-3.8V24ZM31.52,15h1.86V24H31.52V15Zm-.15-2.38a1.08,1.08,0,1,1,1.08,1.06,1.07,1.07,0,0,1-1.08-1.06Z"/><path class="ddea7828-4b47-4c8d-a2ac-b32c994d7947" d="M21.88,9.91a.29.29,0,0,0-.09-.13.51.51,0,0,0-.17-.09h0a1.2,1.2,0,0,0-.29,0l-.87,0H15L13.31,4.43Q13.18,4,13,3.62a1.19,1.19,0,0,0-.14-.26l0,0a.52.52,0,0,0-.14-.13.28.28,0,0,0-.3,0,.52.52,0,0,0-.14.13l0,0a1.19,1.19,0,0,0-.14.26q-.16.4-.29.82L10.16,9.61H4.72l-.87,0a1.2,1.2,0,0,0-.29,0h0a.51.51,0,0,0-.17.09.29.29,0,0,0-.09.13.29.29,0,0,0,0,.16.51.51,0,0,0,.08.17l0,0a1.18,1.18,0,0,0,.21.21l.69.53,4.4,3.2L7,19.38q-.13.41-.25.83a1.2,1.2,0,0,0,0,.29v0a.52.52,0,0,0,0,.19A.28.28,0,0,0,7,20.9a.52.52,0,0,0,.19,0h0a1.21,1.21,0,0,0,.26-.13l.71-.49,4.4-3.2L17,20.23l.71.49a1.21,1.21,0,0,0,.26.13h0a.52.52,0,0,0,.19,0,.28.28,0,0,0,.25-.18.51.51,0,0,0,0-.19v0a1.2,1.2,0,0,0,0-.29q-.11-.42-.25-.83l-1.67-5.15h0l4.4-3.2.69-.53a1.18,1.18,0,0,0,.21-.21l0,0a.51.51,0,0,0,.08-.17.29.29,0,0,0,0-.16ZM17.44,0H19a11,11,0,0,1,1.65.15,5.57,5.57,0,0,1,1.57.52A5.28,5.28,0,0,1,24.49,3,5.57,5.57,0,0,1,25,4.56a11,11,0,0,1,.15,1.65c0,.25,0,.51,0,.76s0,.48,0,.72v9.77q0,.36,0,.72c0,.25,0,.51,0,.76A11,11,0,0,1,25,20.61a5.58,5.58,0,0,1-.52,1.57,5.28,5.28,0,0,1-2.31,2.31,5.58,5.58,0,0,1-1.57.52,10.93,10.93,0,0,1-1.65.15H6.21A10.93,10.93,0,0,1,4.56,25,5.58,5.58,0,0,1,3,24.49,5.28,5.28,0,0,1,.68,22.18a5.58,5.58,0,0,1-.52-1.57A11,11,0,0,1,0,19c0-.25,0-.51,0-.76s0-.48,0-.72V7.69C0,7.45,0,7.21,0,7s0-.51,0-.76A11,11,0,0,1,.16,4.56,5.57,5.57,0,0,1,.68,3,5.28,5.28,0,0,1,3,.68,5.57,5.57,0,0,1,4.56.16,11,11,0,0,1,6.21,0H17.44Z"/><path class="ddea7828-4b47-4c8d-a2ac-b32c994d7947" d="M32.08,4.14h.8a1,1,0,0,0,1.13-1c0-.55-.41-.91-1.12-.91a1.06,1.06,0,0,0-1.2.93H30.8a1.87,1.87,0,0,1,2.11-1.75c1.17,0,2,.66,2,1.6a1.39,1.39,0,0,1-1.08,1.36v.07A1.39,1.39,0,0,1,35.16,6a2,2,0,0,1-2.23,1.77c-1.3,0-2.19-.7-2.24-1.77h.89c.05.57.58.94,1.35.94s1.28-.41,1.28-1-.48-1-1.31-1h-.82V4.14Z"/><path class="ddea7828-4b47-4c8d-a2ac-b32c994d7947" d="M39.06,5.93V5.55L38,5.63c-.62,0-.9.25-.9.65s.35.64.84.64a1.06,1.06,0,0,0,1.17-1Zm-2.89.38c0-.81.6-1.28,1.67-1.34l1.22-.07V4.51c0-.48-.31-.74-.92-.74s-.84.18-.94.5h-.86C36.43,3.5,37.16,3,38.18,3s1.77.56,1.77,1.51V7.59h-.86V7H39a1.51,1.51,0,0,1-1.35.71,1.36,1.36,0,0,1-1.5-1.35Z"/><polygon class="ddea7828-4b47-4c8d-a2ac-b32c994d7947" points="42.3 3.83 42.3 7.59 41.42 7.59 41.42 3.09 44.38 3.09 44.38 3.83 42.3 3.83 42.3 3.83"/><path class="ddea7828-4b47-4c8d-a2ac-b32c994d7947" d="M48.85,5.34c0-1-.45-1.53-1.2-1.53s-1.22.59-1.22,1.53.47,1.53,1.21,1.53,1.21-.57,1.21-1.53Zm.91,0c0,1.43-.72,2.33-1.86,2.33a1.47,1.47,0,0,1-1.39-.76h-.07V9.09h-.89v-6h.86v.74h.07A1.57,1.57,0,0,1,47.9,3c1.15,0,1.87.89,1.87,2.32Z"/><path class="ddea7828-4b47-4c8d-a2ac-b32c994d7947" d="M51,9.2V8.44l.29,0a.77.77,0,0,0,.81-.63l.07-.22L50.49,3.09h1l1.13,3.58h.07l1.13-3.58h.94L53,7.78c-.38,1.1-.81,1.45-1.73,1.45L51,9.2Z"/><path class="ddea7828-4b47-4c8d-a2ac-b32c994d7947" d="M55.42,6.31h.89c.09.4.46.6,1,.6s1-.26,1-.67-.33-.64-1-.64h-.67V4.92h.66c.54,0,.81-.21.81-.58s-.26-.58-.81-.58-.86.21-.92.57H55.5A1.58,1.58,0,0,1,57.27,3C58.34,3,59,3.48,59,4.24a.92.92,0,0,1-.71.92v.07a1,1,0,0,1,.88,1c0,.86-.73,1.42-1.84,1.42s-1.78-.45-1.87-1.36Z"/><polygon class="ddea7828-4b47-4c8d-a2ac-b32c994d7947" points="60.4 7.59 60.4 3.09 61.28 3.09 61.28 6.18 61.35 6.18 63.43 3.09 64.31 3.09 64.31 7.59 63.43 7.59 63.43 4.48 63.37 4.48 61.28 7.59 60.4 7.59 60.4 7.59"/><polygon class="ddea7828-4b47-4c8d-a2ac-b32c994d7947" points="69.16 3.83 67.75 3.83 67.75 7.59 66.86 7.59 66.86 3.83 65.44 3.83 65.44 3.09 69.16 3.09 69.16 3.83 69.16 3.83"/><path class="ddea7828-4b47-4c8d-a2ac-b32c994d7947" d="M70.82,4.92H73.1A1.09,1.09,0,0,0,72,3.76a1.15,1.15,0,0,0-1.17,1.17Zm3.13,1.45a1.83,1.83,0,0,1-2,1.3,2,2,0,0,1-2.08-2.32A2.08,2.08,0,0,1,72,3c1.25,0,2,.86,2,2.27v.31H70.82v0A1.19,1.19,0,0,0,72,6.92a1.08,1.08,0,0,0,1.07-.55Z"/><path class="ddea7828-4b47-4c8d-a2ac-b32c994d7947" d="M78.6,5.59V6.91h1.05c.53,0,.81-.23.81-.66s-.32-.66-.92-.66Zm0-1.82V4.93h.88c.54,0,.79-.21.79-.59s-.22-.58-.7-.58Zm-.88-.68h2c.88,0,1.4.45,1.4,1.14a1,1,0,0,1-.76,1v.07a1,1,0,0,1,1,1c0,.79-.59,1.3-1.58,1.3H77.72V3.09Z"/></g></g></g></svg>