<svg xmlns="http://www.w3.org/2000/svg" viewBox="0 0 118.79 150.08"><defs><style>.\39 17e249c-fb56-48a9-a279-1c0478cf3451{fill:#016841;}.\37 614f778-9e4c-4cad-b75c-edcec030724b{fill:#344d5e;}</style></defs><title>ATMF_composition</title><g id="abf0cfa3-ab07-48bd-88f4-21c35dd1e630" data-name="Layer 2"><g id="5a2a6a09-f636-4162-a8f1-4fdd2ac4d01f" data-name="Layer 2"><path class="917e249c-fb56-48a9-a279-1c0478cf3451" d="M19.76,94.2h-.42a.43.43,0,0,1-.42-.44V89.18h7v4.58a.43.43,0,0,1-.42.44h-.42v.47h4.33V94.2H29a.42.42,0,0,1-.41-.44V82.58a.42.42,0,0,1,.41-.44h.41v-.47H25.07v.47h.42a.43.43,0,0,1,.42.44v4.25h-7V82.58a.43.43,0,0,1,.42-.44h.42v-.47H15.42v.47h.42a.43.43,0,0,1,.42.44V93.74a.42.42,0,0,1-.42.46h-.42v.47h4.34Z"/><path class="917e249c-fb56-48a9-a279-1c0478cf3451" d="M81.25,84.84h.47v-.38a.44.44,0,0,1,.44-.44h3.37v9.74a.44.44,0,0,1-.44.44h-.4v.47H89V94.2h-.45a.41.41,0,0,1-.38-.44V84h3.22a.44.44,0,0,1,.44.44v.38h.47V81.68H81.25Z"/><path class="917e249c-fb56-48a9-a279-1c0478cf3451" d="M4.34,94.2h-.4c-.22,0-.33-.18-.24-.4l.55-1.48h6.22l.61,1.48a.27.27,0,0,1-.25.41h-.4v.47h4.33V94.2h-.41a.67.67,0,0,1-.57-.41L9,81.68H5.89L1,93.8a.68.68,0,0,1-.58.4H0v.47H4.34ZM7.46,84.11l2.19,6H5.18Z"/><path class="917e249c-fb56-48a9-a279-1c0478cf3451" d="M35.87,94.2h-.41a.42.42,0,0,1-.41-.44V85.9l4.59,5.53,4.59-5.53v7.86a.43.43,0,0,1-.41.44h-.42v.47h4.34V94.2h-.42a.43.43,0,0,1-.42-.44V82.58a.43.43,0,0,1,.42-.44h.42v-.47H44.48l-4.85,5.79-4.85-5.79H31.53v.47H32a.43.43,0,0,1,.42.44V93.76a.43.43,0,0,1-.42.44h-.42v.47h4.33Z"/><path class="917e249c-fb56-48a9-a279-1c0478cf3451" d="M52.65,94.2h-.4c-.22,0-.33-.18-.24-.4l.68-1.72h6l.66,1.72c.09.22,0,.41-.25.41h-.4v.47h4.33V94.2h-.41a.69.69,0,0,1-.58-.41L57.34,81.68H54.21L49.31,93.8a.68.68,0,0,1-.58.4h-.41v.47h4.33Zm3.12-10.09,2.19,6H53.49Z"/><path class="917e249c-fb56-48a9-a279-1c0478cf3451" d="M76.87,88.19c0-4.22-2.87-6.5-6.71-6.52H63.73v.47h.4a.43.43,0,0,1,.43.43V93.76a.44.44,0,0,1-.43.44h-.4v.47h6.44c3.84,0,6.71-2.29,6.71-6.48m-9.63,4.12V84h2.81a4.14,4.14,0,0,1,0,8.29Z"/><path class="917e249c-fb56-48a9-a279-1c0478cf3451" d="M118.38,94.2a.66.66,0,0,1-.56-.41l-4.75-12.12h-3.13l-4.3,10.64H97.35V89.19h5.42a.42.42,0,0,1,.43.41V90h.47V86h-.47v.4a.42.42,0,0,1-.43.41H97.35V84h6.81a.42.42,0,0,1,.43.41v.4h.47V81.68H94v.47h.4a.44.44,0,0,1,.44.44V93.76a.44.44,0,0,1-.44.44H94v.47h14.42V94.2H108c-.22,0-.32-.18-.24-.4l.55-1.48h6.22l.6,1.48c.09.22,0,.41-.24.41h-.4v.47h4.34V94.2Zm-9.17-4.12,2.28-6,2.19,6Z"/><path class="917e249c-fb56-48a9-a279-1c0478cf3451" d="M48.66,115.31h.42a.43.43,0,0,1,.41.43v11.18a.43.43,0,0,1-.41.44h-.42v.47H53v-.47h-.41a.43.43,0,0,1-.42-.44V115.75a.42.42,0,0,1,.42-.43H53v-.47H48.66Z"/><path class="917e249c-fb56-48a9-a279-1c0478cf3451" d="M91,125.1a.42.42,0,0,1-.44.41H84.7v-9.76a.43.43,0,0,1,.42-.43h.41v-.47H81.2v.47h.42a.43.43,0,0,1,.42.43v11.18a.43.43,0,0,1-.42.44H81.2v.47H91.45v-3.14H91Z"/><path class="917e249c-fb56-48a9-a279-1c0478cf3451" d="M68.14,115.31h.34v-.47H64.14v.47h.37c.2,0,.3.18.22.41l-3.65,9.65-3.53-9.65c-.08-.22,0-.41.22-.41h.37v-.47H53.8v.47h.34a.63.63,0,0,1,.5.4l4.75,12.12h3.36l4.88-12.12a.63.63,0,0,1,.5-.4"/><path class="917e249c-fb56-48a9-a279-1c0478cf3451" d="M36.13,118h.47v-.38a.44.44,0,0,1,.44-.43h3.37v9.74a.44.44,0,0,1-.44.44h-.4v.47h4.34v-.47h-.45a.41.41,0,0,1-.38-.44v-9.74H46.3a.44.44,0,0,1,.44.43V118h.47v-3.16H36.13Z"/><path class="917e249c-fb56-48a9-a279-1c0478cf3451" d="M11.22,115.31h.4a.43.43,0,0,1,.43.43V120H3.4v-2.81H8.27a.42.42,0,0,1,.44.41V118h.47v-3.16H0v.47h.4a.44.44,0,0,1,.43.43v11.18a.44.44,0,0,1-.43.44H0v.47H4.23v-.47h-.4a.44.44,0,0,1-.43-.44v-4.58h8.65v4.58a.43.43,0,0,1-.43.44h-.4v.47H22.33v-3.16h-.47v.41a.42.42,0,0,1-.43.41H14.62v-3.13H20a.42.42,0,0,1,.44.41v.41h.47v-4h-.47v.4A.42.42,0,0,1,20,120H14.62v-2.81h6.82a.42.42,0,0,1,.43.41V118h.47v-3.16H11.22Z"/><path class="917e249c-fb56-48a9-a279-1c0478cf3451" d="M33.19,119l.53.16,1.2-4.17-.53-.16-.07.26a.44.44,0,0,1-.23.27.42.42,0,0,1-.19,0,.45.45,0,0,1-.16,0,11.35,11.35,0,0,0-4-.72c-4.83,0-5.2,3-5.2,3.94,0,1.79,1,3,3,3.48l2.46.67c1.15.32,1.86.66,1.86,1.37s-.64,1.45-2.45,1.45a7.63,7.63,0,0,1-3.45-.9.44.44,0,0,1-.22-.49l.12-.45-.53-.14-1.08,4.2.53.14.1-.4a.44.44,0,0,1,.42-.33.43.43,0,0,1,.17,0,10.73,10.73,0,0,0,3.88.79c3.12,0,5.29-1.69,5.29-4.11s-1.87-3.13-3.5-3.59l-2.41-.69c-.91-.26-1.41-.54-1.41-1.26,0-.47.3-1.26,2.33-1.26a8.4,8.4,0,0,1,3.45.8.43.43,0,0,1,.23.51Z"/><path class="917e249c-fb56-48a9-a279-1c0478cf3451" d="M79.63,127l-4.75-12.12H71.74L66.84,127a.67.67,0,0,1-.57.41h-.41v.47h4.33v-.47h-.4c-.22,0-.33-.18-.24-.41l.55-1.47h6.22l.6,1.47a.27.27,0,0,1-.25.41h-.4v.47H80.6v-.47h-.41a.68.68,0,0,1-.57-.41M71,123.25l2.28-6,2.2,6Z"/><path class="917e249c-fb56-48a9-a279-1c0478cf3451" d="M24.89,111.45c3.88,0,5.94-2.64,5.94-5.69v-6.6a.43.43,0,0,1,.42-.43h.41v-.47H27.33v.47h.42a.42.42,0,0,1,.41.43v6.41c0,2-1.07,3.4-3.27,3.4s-3.2-1.32-3.2-3.38V99.15a.43.43,0,0,1,.41-.43h.41v-.47H18.18v.47h.41a.43.43,0,0,1,.42.43v6.6c0,3.3,2,5.69,5.88,5.69"/><path class="917e249c-fb56-48a9-a279-1c0478cf3451" d="M49.84,98.72h.42v-.47H45.92v.47h.41a.43.43,0,0,1,.42.43v11.18a.43.43,0,0,1-.42.44h-.41v.47h4.34v-.47h-.42a.43.43,0,0,1-.42-.44V99.15a.43.43,0,0,1,.42-.43"/><path class="917e249c-fb56-48a9-a279-1c0478cf3451" d="M52.44,104.76a6.3,6.3,0,0,0,6.69,6.67,7.9,7.9,0,0,0,3.55-.88.44.44,0,0,1,.2,0,.45.45,0,0,1,.18,0,.43.43,0,0,1,.24.29l.11.41.52-.13-1.09-4.2-.51.13.13.51a.43.43,0,0,1-.19.48,5.86,5.86,0,0,1-3.07.92c-2.39,0-4-1.53-4-4.18s1.59-4.22,3.88-4.22a4.26,4.26,0,0,1,.65.05,2.23,2.23,0,0,0,1.67,3.72,2.68,2.68,0,0,0,2.68-2.68,2.65,2.65,0,0,0-.35-1.29s0,0,0,0l-.09-.12-.07-.11a5.06,5.06,0,0,0-4.46-2,6.31,6.31,0,0,0-6.69,6.71"/><path class="917e249c-fb56-48a9-a279-1c0478cf3451" d="M15.78,98.71h.42v-.47H13L8.1,104,3.25,98.24H0v.47H.43a.43.43,0,0,1,.42.44v11.18a.43.43,0,0,1-.42.44H0v.47H4.34v-.47H3.93a.43.43,0,0,1-.42-.44v-7.87L8.1,108l4.59-5.53v7.87a.43.43,0,0,1-.42.44h-.41v.47H16.2v-.47h-.42a.43.43,0,0,1-.41-.44V99.15a.43.43,0,0,1,.41-.44"/><path class="917e249c-fb56-48a9-a279-1c0478cf3451" d="M42.3,102.41l.53.16L44,98.4l-.53-.16-.07.26a.44.44,0,0,1-.23.27.45.45,0,0,1-.19,0,.47.47,0,0,1-.16,0,11.34,11.34,0,0,0-4-.72c-4.82,0-5.19,3-5.19,3.94,0,1.79,1,3,3,3.48l2.46.67c1.15.32,1.86.66,1.86,1.38S40.35,109,38.54,109a7.6,7.6,0,0,1-3.45-.91.43.43,0,0,1-.22-.49l.11-.46-.52-.14-1.09,4.2.53.14.1-.4a.42.42,0,0,1,.23-.28.42.42,0,0,1,.36,0,10.73,10.73,0,0,0,3.88.79c3.12,0,5.29-1.69,5.29-4.11s-1.87-3.13-3.5-3.59L37.87,103c-.92-.26-1.41-.54-1.41-1.26,0-.47.3-1.26,2.32-1.26a8.43,8.43,0,0,1,3.45.8.43.43,0,0,1,.23.51Z"/><path class="7614f778-9e4c-4cad-b75c-edcec030724b" d="M20.33,30.43a3,3,0,1,0-.83.11,3,3,0,0,0,.83-.11M20,29.36a1.76,1.76,0,0,1-.51.07A1.87,1.87,0,0,1,17.72,28a2,2,0,0,1,.17-1.46A1.83,1.83,0,0,1,19,25.64a1.67,1.67,0,0,1,.51-.08A1.88,1.88,0,0,1,21.31,27a2,2,0,0,1-.17,1.46,1.84,1.84,0,0,1-1.12.92"/><path class="7614f778-9e4c-4cad-b75c-edcec030724b" d="M35.09,50.68H35l-.71-.18.14-.28a8.87,8.87,0,0,1,3.5-3.73l.29-.17a3.26,3.26,0,0,0,1.55-1.93l.05-.16.14,0,.63.27,0,.13A4.1,4.1,0,0,1,38.61,47l-.29.17a8,8,0,0,0-3.18,3.38Z"/><path class="7614f778-9e4c-4cad-b75c-edcec030724b" d="M16.38,36.29a.89.89,0,0,1,.23,0,.94.94,0,0,1,.24,1.85.85.85,0,0,1-.23,0,.94.94,0,0,1-.81-1.42.92.92,0,0,1,.57-.43"/><path class="7614f778-9e4c-4cad-b75c-edcec030724b" d="M17,38.67l.23,0a.93.93,0,0,1,.91.7.94.94,0,0,1-.67,1.14,1,1,0,0,1-.23,0,.94.94,0,0,1-.81-1.42.94.94,0,0,1,.58-.42"/><path class="7614f778-9e4c-4cad-b75c-edcec030724b" d="M19.39,38.06a.92.92,0,0,1,.23,0,.94.94,0,0,1,.24,1.84,1,1,0,0,1-.24,0,.93.93,0,0,1-.8-1.42.93.93,0,0,1,.57-.43"/><path class="7614f778-9e4c-4cad-b75c-edcec030724b" d="M18.2,36.1a.93.93,0,0,1,.57-.43,1,1,0,0,1,.23,0,.94.94,0,0,1,.91.7.93.93,0,0,1-.1.71.92.92,0,0,1-.58.43.86.86,0,0,1-.23,0,.94.94,0,0,1-.8-1.41"/><path class="7614f778-9e4c-4cad-b75c-edcec030724b" d="M0,58.76l4,1a19.67,19.67,0,0,0,4.74.61,25.1,25.1,0,0,0,5-.59l.59-.11a19.37,19.37,0,0,1,3.08-.43l.62,0a8.89,8.89,0,0,1,1.9.19l.45.1.33.1a13.31,13.31,0,0,1,5,2.88l.6.48a19.43,19.43,0,0,0,8.23,4.34l4,1L37,54.72a5.27,5.27,0,0,1,0-1.26l0-.39.08-.3a5.37,5.37,0,0,1,2.49-3.26l.3-.17a6.75,6.75,0,0,0,3.23-4.25l.62-2.38c-.76-.31-4.92-2-8.25-3.4l-.13-.05.1-.29a2.84,2.84,0,0,0,.09-.27,4.5,4.5,0,0,1,2.58-2.94,10.6,10.6,0,0,0,2.59-1.6l.06,0h.07a23.64,23.64,0,0,0,4.67.55h.64a13.19,13.19,0,0,0-4.61-2.49l-.06,0,0-.06a5.25,5.25,0,0,0-5-3l-.11-.29,2.09-.89.38-.17.87-.37.63-.28c4.6-2,8.66-4,9.37-4.33l-.5-2.09c-.12-.47-.22-.87-.35-1.32A36,36,0,0,0,38.89,2.53L36.27,0,31.85,8.8l-.15-.11A20.61,20.61,0,0,0,19.25,4.25,19,19,0,0,0,9.76,6.77,18.55,18.55,0,0,0,.84,18.18a18.93,18.93,0,0,0,1.9,14.48l5.18,9a5.41,5.41,0,0,1,.54,4L8.38,46l-.13.33a5,5,0,0,1-.52,1Zm37.1-26.58a1.09,1.09,0,1,1,1.09,1.09,1.09,1.09,0,0,1-1.09-1.09m-6-22.2-1.29,2.57a14.51,14.51,0,0,1-8.31,7.26c-1.28.44-2.56.84-3.8,1.18a6.76,6.76,0,0,0,1.83,13.26,6.5,6.5,0,0,0,1-.09l.14,0L22.82,43a11.17,11.17,0,0,1,0,4.57l-.38,1.51L9.81,46l0-.14a6.8,6.8,0,0,0-.72-4.88L3.94,32A17.71,17.71,0,0,1,19.25,5.42,18,18,0,0,1,31,9.9ZM8.88,48.07a6.59,6.59,0,0,0,.6-1.13l.05-.12L22.22,50l-.42,1.68L8.66,48.38Zm26.76,6.77,0,.22-13-3.22.42-1.68,12.58,3.12v.13a6.31,6.31,0,0,0,0,1.43M21,32.75a5.25,5.25,0,0,1-1.41.19,5.53,5.53,0,0,1-5.07-4,5.24,5.24,0,0,1,.33-4,5.84,5.84,0,0,1,3.27-2.71c1.27-.36,2.58-.76,3.88-1.21a15.63,15.63,0,0,0,9.08-7.9l5.5-11,1.38,1.4a34.73,34.73,0,0,1,9.68,16.2c.12.44.22.82.34,1.27l.31,1.26-1,.46a150.77,150.77,0,0,1-26.3,10m14.9,19.52,0,.14-12.54-3.1.38-1.51a12.32,12.32,0,0,0,0-5l-2.16-8.86.14,0c2.22-.63,4.49-1.33,6.72-2.08l.26-.08-.06.26a6,6,0,0,0,0,2.47,6.59,6.59,0,0,0,4,4.69l9.64,4.12-.36,1.45a5.4,5.4,0,0,1-2.59,3.4l-.3.17a6.79,6.79,0,0,0-3.1,4M21,58.45l1.44-5.76L35.76,56,36.9,66.47,34.82,66a19.1,19.1,0,0,1-8.07-4.24,15.19,15.19,0,0,0-5.62-3.21ZM2.25,57.9l5.89-8.74,13.44,3.32-1.44,5.77-.14,0a12.63,12.63,0,0,0-2.63-.29,20.62,20.62,0,0,0-3.93.49,24,24,0,0,1-4.7.56,18.06,18.06,0,0,1-4.41-.57Z"/><polygon class="7614f778-9e4c-4cad-b75c-edcec030724b" points="32.39 63.35 31.89 58.46 32.66 58.75 33.15 63.67 32.39 63.35"/><polygon class="7614f778-9e4c-4cad-b75c-edcec030724b" points="34.53 64.15 33.81 57.09 34.58 57.38 35.29 64.38 34.53 64.15"/><polygon class="7614f778-9e4c-4cad-b75c-edcec030724b" points="6.95 57.18 9.89 53.01 10.67 53.25 7.83 57.29 6.95 57.18"/><polygon class="7614f778-9e4c-4cad-b75c-edcec030724b" points="4.54 56.79 8.61 50.92 9.38 51.16 5.37 56.96 4.54 56.79"/><path class="7614f778-9e4c-4cad-b75c-edcec030724b" d="M11.3,44.67a7.61,7.61,0,0,0-1-4.4l-5.18-9A16.33,16.33,0,0,1,19.24,6.79a16.49,16.49,0,0,1,10,3.43l-.4.66a15.21,15.21,0,0,0-9.59-3.41A15.64,15.64,0,0,0,5.71,30.94l5.18,9A8.82,8.82,0,0,1,12,44.7v.14Z"/><path class="7614f778-9e4c-4cad-b75c-edcec030724b" d="M6.94,30.23A14.23,14.23,0,0,1,19.24,8.9,14.38,14.38,0,0,1,28,12l.19.14a4.15,4.15,0,0,0-.43.63l-.18-.23A13.45,13.45,0,0,0,12.49,11.4a13.53,13.53,0,0,0-5,18.48l4.73,8.19-.77,0Z"/><path class="7614f778-9e4c-4cad-b75c-edcec030724b" d="M8.2,28a12.08,12.08,0,0,1,5-15.4,12.14,12.14,0,0,1,6-1.62,12.27,12.27,0,0,1,7.51,2.63l.34.26a3.17,3.17,0,0,0-.53.54l-.23-.26a11.35,11.35,0,0,0-12.78-1,11.4,11.4,0,0,0-4.7,14.55Z"/><path class="7614f778-9e4c-4cad-b75c-edcec030724b" d="M28.69,27.34a41,41,0,0,0-2.17-5.44,2.79,2.79,0,0,0,.72-.39c.48,1.16,1.35,3.1,2.16,5.63Z"/><path class="7614f778-9e4c-4cad-b75c-edcec030724b" d="M30.81,26.57a38.59,38.59,0,0,0-2.41-6,3,3,0,0,0,.68-.47,56,56,0,0,1,2.44,6.24Z"/><path class="7614f778-9e4c-4cad-b75c-edcec030724b" d="M37.14,24.1a32.32,32.32,0,0,0-4.07-8.93l.08-.06c.15-.27.29-.5.41-.74a37.65,37.65,0,0,1,4.27,9.51Z"/><path class="7614f778-9e4c-4cad-b75c-edcec030724b" d="M45.47,20.43A32.55,32.55,0,0,0,37.53,6.36L38,5.61a34.4,34.4,0,0,1,8.2,14.56l-.69.27Z"/><path class="7614f778-9e4c-4cad-b75c-edcec030724b" d="M26.54,28.07a43.33,43.33,0,0,0-2-5.14,2.49,2.49,0,0,0,.75-.29c.44,1.07,1.24,2.89,2,5.25Z"/><path class="7614f778-9e4c-4cad-b75c-edcec030724b" d="M32.93,25.77A37.23,37.23,0,0,0,30.15,19a3.62,3.62,0,0,0,.62-.59,48.11,48.11,0,0,1,2.87,7.1Z"/><path class="7614f778-9e4c-4cad-b75c-edcec030724b" d="M41.32,22.31a31.56,31.56,0,0,0-6-11.62l.43-.77A33.86,33.86,0,0,1,42,22.07Z"/><path class="7614f778-9e4c-4cad-b75c-edcec030724b" d="M43.4,21.38A31.69,31.69,0,0,0,36.46,8.52l.43-.77a33.69,33.69,0,0,1,7.2,13.38Z"/><path class="7614f778-9e4c-4cad-b75c-edcec030724b" d="M35,24.95a35.32,35.32,0,0,0-3.3-7.7,4.41,4.41,0,0,0,.54-.71,41.35,41.35,0,0,1,3.47,8.19Z"/><path class="7614f778-9e4c-4cad-b75c-edcec030724b" d="M39.24,23.22a32.32,32.32,0,0,0-5-10.31l.44-.79A35.05,35.05,0,0,1,39.93,23Z"/><path class="7614f778-9e4c-4cad-b75c-edcec030724b" d="M8.65,138.16v2.35h.49v-2.43c0-1.34-.63-1.91-1.78-1.91a2.19,2.19,0,0,0-1.54.65v-2.95H0v.49H2.45v6.14H3v-6.14H5.33v6.14h.49v-3.22a1.94,1.94,0,0,1,1.42-.65c.95,0,1.4.5,1.4,1.53"/><path class="7614f778-9e4c-4cad-b75c-edcec030724b" d="M13.93,139.61a2,2,0,0,1-1.38.52,1.62,1.62,0,0,1-1.74-1.65h3.52a2.37,2.37,0,0,0,0-.4,1.85,1.85,0,0,0-1.93-1.92,2.06,2.06,0,0,0-2.16,2.22,2.12,2.12,0,0,0,2.26,2.22,2.21,2.21,0,0,0,1.57-.61Zm-1.56-3a1.38,1.38,0,0,1,1.48,1.45H10.77a1.52,1.52,0,0,1,1.59-1.45"/><path class="7614f778-9e4c-4cad-b75c-edcec030724b" d="M16,136.81v-.57h-.49v4.27H16v-3.19a1.16,1.16,0,0,1,1-.69,1,1,0,0,1,.6.16l.17-.46a1,1,0,0,0-.67-.16,1.3,1.3,0,0,0-1.14.65"/><path class="7614f778-9e4c-4cad-b75c-edcec030724b" d="M20.5,136.16a2.06,2.06,0,0,0-2.16,2.22,2.12,2.12,0,0,0,2.27,2.22,2.21,2.21,0,0,0,1.57-.61l-.16-.38a2,2,0,0,1-1.39.52,1.62,1.62,0,0,1-1.74-1.65h3.52a2.47,2.47,0,0,0,0-.4,1.85,1.85,0,0,0-1.93-1.92m-1.64,1.92a1.52,1.52,0,0,1,1.59-1.45,1.38,1.38,0,0,1,1.48,1.45Z"/><path class="7614f778-9e4c-4cad-b75c-edcec030724b" d="M26.34,134.94a.33.33,0,0,0,.32-.35.32.32,0,0,0-.32-.31.32.32,0,0,0-.35.31.34.34,0,0,0,.35.35"/><rect class="7614f778-9e4c-4cad-b75c-edcec030724b" x="26.07" y="136.24" width="0.5" height="4.27"/><path class="7614f778-9e4c-4cad-b75c-edcec030724b" d="M28.68,137.28c0-.37.33-.68.86-.68a1.68,1.68,0,0,1,1.12.41l.21-.37a1.91,1.91,0,0,0-1.34-.47c-.82,0-1.37.44-1.37,1.13,0,1.56,2.36,1,2.36,2.1,0,.52-.46.77-1,.77a1.75,1.75,0,0,1-1.24-.5L28,140a2,2,0,0,0,1.46.62c.82,0,1.54-.38,1.54-1.22,0-1.5-2.36-1-2.36-2.1"/><path class="7614f778-9e4c-4cad-b75c-edcec030724b" d="M35,137.29a2,2,0,0,1,1.42-.65c.95,0,1.4.49,1.4,1.53v2.34h.49v-2.44c0-1.34-.63-1.91-1.78-1.91a2.15,2.15,0,0,0-1.54.67v-.6H34.5v4.26H35Z"/><path class="7614f778-9e4c-4cad-b75c-edcec030724b" d="M43.9,138.38a2.24,2.24,0,1,0-2.24,2.22,2.14,2.14,0,0,0,2.24-2.22m-2.24,1.75a1.75,1.75,0,1,1,1.72-1.75,1.67,1.67,0,0,1-1.72,1.75"/><path class="7614f778-9e4c-4cad-b75c-edcec030724b" d="M49,139.89a1.08,1.08,0,0,1-.6.21c-.45,0-.61-.31-.61-1v-5.27h-.49v5.54c0,.78.29,1.15.93,1.15a1.5,1.5,0,0,0,.9-.28Z"/><rect class="7614f778-9e4c-4cad-b75c-edcec030724b" x="50.24" y="136.24" width="0.5" height="4.27"/><path class="7614f778-9e4c-4cad-b75c-edcec030724b" d="M50.51,134.94a.33.33,0,0,0,.32-.35.32.32,0,0,0-.32-.31.32.32,0,0,0-.35.31.34.34,0,0,0,.35.35"/><path class="7614f778-9e4c-4cad-b75c-edcec030724b" d="M52.61,135.55v5h.49v-3.8h1.63v-.47H53.11v-.61c0-1,.38-1.38,1.05-1.38a1.28,1.28,0,0,1,.84.27l.19-.38a1.69,1.69,0,0,0-1.11-.36c-.95,0-1.47.58-1.47,1.76"/><path class="7614f778-9e4c-4cad-b75c-edcec030724b" d="M58.91,139.61a2,2,0,0,1-1.38.52,1.62,1.62,0,0,1-1.74-1.65H59.3a2.35,2.35,0,0,0,0-.4,1.85,1.85,0,0,0-1.94-1.92,2.06,2.06,0,0,0-2.16,2.22,2.12,2.12,0,0,0,2.27,2.22,2.21,2.21,0,0,0,1.57-.61Zm-1.56-3a1.38,1.38,0,0,1,1.48,1.45H55.75a1.52,1.52,0,0,1,1.59-1.45"/><path class="7614f778-9e4c-4cad-b75c-edcec030724b" d="M4.95,148.66c-.07.24-.14.46-.2.69-.08-.22-.14-.44-.22-.64l-1.11-3H3l-1.09,3c-.08.23-.14.42-.21.63-.07-.21-.11-.41-.18-.63l-1-3H0L1.47,150h.39L3,147c.07-.19.13-.37.19-.57.06.18.12.36.19.54L4.56,150H5l1.38-4.32h-.5Z"/><path class="7614f778-9e4c-4cad-b75c-edcec030724b" d="M7.74,144.42a.33.33,0,0,0,.32-.35.32.32,0,0,0-.32-.31.32.32,0,0,0-.35.31.34.34,0,0,0,.35.35"/><path class="7614f778-9e4c-4cad-b75c-edcec030724b" d="M11.07,149.58c-.68,0-1-.45-1-1.29v-2.1h1.72v-.46H10.11v-1.19H9.61v1.19H7.47V150H8v-3.8H9.61v2.18c0,1.09.39,1.68,1.34,1.68a1.57,1.57,0,0,0,1-.3l-.16-.39a1.16,1.16,0,0,1-.68.23"/><path class="7614f778-9e4c-4cad-b75c-edcec030724b" d="M15,145.65a2.18,2.18,0,0,0-1.53.65v-2.95H13V150h.49v-3.22a1.94,1.94,0,0,1,1.42-.65c.95,0,1.4.5,1.4,1.53V150h.49v-2.43c0-1.34-.62-1.91-1.78-1.91"/><path class="7614f778-9e4c-4cad-b75c-edcec030724b" d="M20.17,145.64a2.22,2.22,0,1,0,2.24,2.22,2.14,2.14,0,0,0-2.24-2.22m0,4a1.75,1.75,0,1,1,1.72-1.75,1.67,1.67,0,0,1-1.72,1.75"/><path class="7614f778-9e4c-4cad-b75c-edcec030724b" d="M26.77,148.87a2,2,0,0,1-1.44.74c-.92,0-1.32-.52-1.32-1.52v-2.37h-.49v2.47c0,1.29.6,1.88,1.63,1.88a2.17,2.17,0,0,0,1.62-.76V150h.49v-4.26h-.49Z"/><path class="7614f778-9e4c-4cad-b75c-edcec030724b" d="M30.12,149.58c-.68,0-1-.45-1-1.29v-2.1h1.72v-.46H29.17v-1.19h-.49v3.83c0,1.09.39,1.68,1.34,1.68a1.58,1.58,0,0,0,1-.3l-.16-.39a1.16,1.16,0,0,1-.68.23"/><path class="7614f778-9e4c-4cad-b75c-edcec030724b" d="M35.65,149.58c-.68,0-1-.45-1-1.29v-2.1h1.72v-.46H34.69v-1.19H34.2v3.83c0,1.09.39,1.68,1.34,1.68a1.58,1.58,0,0,0,1-.3l-.16-.39a1.16,1.16,0,0,1-.68.23"/><path class="7614f778-9e4c-4cad-b75c-edcec030724b" d="M39.28,145.64a2.06,2.06,0,0,0-2.16,2.22,2.12,2.12,0,0,0,2.27,2.22,2.21,2.21,0,0,0,1.57-.61l-.16-.38a2,2,0,0,1-1.39.52A1.62,1.62,0,0,1,37.67,148h3.52a2.39,2.39,0,0,0,0-.4,1.85,1.85,0,0,0-1.93-1.92m-1.64,1.92a1.52,1.52,0,0,1,1.59-1.45,1.37,1.37,0,0,1,1.48,1.45Z"/><path class="7614f778-9e4c-4cad-b75c-edcec030724b" d="M43.75,145.64a2.54,2.54,0,0,0-1.36.39l.13.41a2.23,2.23,0,0,1,1.2-.33c1.06,0,1.12.65,1.12,1.67a2.08,2.08,0,0,0-1.16-.32c-.92,0-1.62.47-1.62,1.33A1.22,1.22,0,0,0,43.38,150a1.68,1.68,0,0,0,1.46-.71V150h.49v-2.64c0-1.08-.4-1.71-1.58-1.71m1.09,3.27a1.51,1.51,0,0,1-1.31.67.85.85,0,0,1-.95-.83c0-.62.59-.89,1.15-.89a1.82,1.82,0,0,1,1.11.34Z"/><path class="7614f778-9e4c-4cad-b75c-edcec030724b" d="M54.29,145.73h-.48a5.12,5.12,0,0,1-.63,2.5l-1.88-2.39a1.26,1.26,0,0,0,1.09-1.25,1.37,1.37,0,0,0-2.75,0,1.25,1.25,0,0,0,1,1.24A3,3,0,0,0,49,148.19,1.92,1.92,0,0,0,51,150.08a2.47,2.47,0,0,0,2.11-1.1l.81,1h.61l-1.08-1.36a5.39,5.39,0,0,0,.8-2.9m-4.18-1.14a.9.9,0,0,1,.91-.91.91.91,0,1,1-.91.91m.93,5a1.49,1.49,0,0,1-1.53-1.49,2.71,2.71,0,0,1,1.41-2l1.92,2.47a2.08,2.08,0,0,1-1.8,1"/><path class="7614f778-9e4c-4cad-b75c-edcec030724b" d="M63,145.65a1.89,1.89,0,0,0-1.56.79,1.25,1.25,0,0,0-1.31-.79,2,2,0,0,0-1.48.67v-.6h-.49V150h.49v-3.21a1.62,1.62,0,0,1,1.3-.67,1,1,0,0,1,1.07,1V150h.49v-2.86a1.59,1.59,0,0,0,0-.3,1.5,1.5,0,0,1,1.31-.71c.71,0,1.08.38,1.08,1.21V150h.49v-2.8c0-1.17-.59-1.55-1.38-1.55"/><path class="7614f778-9e4c-4cad-b75c-edcec030724b" d="M69,148.87a2,2,0,0,1-1.44.74c-.92,0-1.32-.52-1.32-1.52v-2.37h-.49v2.47c0,1.29.6,1.88,1.63,1.88a2.17,2.17,0,0,0,1.62-.76V150h.49v-4.26H69Z"/><path class="7614f778-9e4c-4cad-b75c-edcec030724b" d="M71.35,146.76c0-.37.33-.68.86-.68a1.67,1.67,0,0,1,1.12.41l.21-.37a1.92,1.92,0,0,0-1.34-.47c-.81,0-1.37.45-1.37,1.13,0,1.56,2.36,1,2.36,2.1,0,.52-.46.77-1,.77a1.76,1.76,0,0,1-1.24-.5l-.28.32a2,2,0,0,0,1.46.62c.81,0,1.53-.38,1.53-1.22,0-1.5-2.36-1-2.36-2.1"/><rect class="7614f778-9e4c-4cad-b75c-edcec030724b" x="75.18" y="145.73" width="0.49" height="4.27"/><path class="7614f778-9e4c-4cad-b75c-edcec030724b" d="M75.45,143.76a.32.32,0,0,0-.35.31.34.34,0,0,0,.35.35.33.33,0,0,0,.32-.35.32.32,0,0,0-.32-.31"/><path class="7614f778-9e4c-4cad-b75c-edcec030724b" d="M80.74,149a1.77,1.77,0,0,1-1.33.59,1.68,1.68,0,0,1-1.77-1.75,1.7,1.7,0,0,1,1.68-1.75,1.94,1.94,0,0,1,1.35.46l.24-.4a2.33,2.33,0,0,0-1.66-.53,2.22,2.22,0,0,0,.13,4.44,2.06,2.06,0,0,0,1.61-.69Z"/></g></g></svg>