<svg xmlns="http://www.w3.org/2000/svg" viewBox="0 0 51.48 70.61"><defs><style>.c720d39d-78eb-4a86-924d-ea9532cdd2a0{fill:#344d5e;}</style></defs><title>ATMF_Helm</title><g id="c30eaaa6-06be-4eeb-bdd2-6877850379e4" data-name="Layer 2"><g id="dfa45781-1cb5-44f4-a6bc-f60d325db1d6" data-name="Layer 2"><path class="c720d39d-78eb-4a86-924d-ea9532cdd2a0" d="M21,31.47a3.15,3.15,0,1,0-.85.12,3.13,3.13,0,0,0,.85-.12m-.33-1.11a1.82,1.82,0,0,1-.53.07A1.94,1.94,0,0,1,18.31,29a2,2,0,0,1,.17-1.51,1.89,1.89,0,0,1,1.16-.95,1.73,1.73,0,0,1,.53-.08A1.94,1.94,0,0,1,22,27.9a2,2,0,0,1-.18,1.51,1.9,1.9,0,0,1-1.16,1"/><path class="c720d39d-78eb-4a86-924d-ea9532cdd2a0" d="M36.27,52.41h-.11l-.74-.19.14-.29a9.17,9.17,0,0,1,3.62-3.86l.3-.17a3.37,3.37,0,0,0,1.6-2l.05-.17.14,0,.65.28,0,.13a4.24,4.24,0,0,1-2,2.45l-.3.18a8.29,8.29,0,0,0-3.29,3.5Z"/><path class="c720d39d-78eb-4a86-924d-ea9532cdd2a0" d="M16.93,37.52a.92.92,0,0,1,.24,0,1,1,0,0,1,.25,1.91.88.88,0,0,1-.24,0A1,1,0,0,1,16.34,38a1,1,0,0,1,.59-.45"/><path class="c720d39d-78eb-4a86-924d-ea9532cdd2a0" d="M17.57,40l.24,0a1,1,0,0,1,.94.73,1,1,0,0,1-.7,1.18,1,1,0,0,1-.24,0A1,1,0,0,1,17,40.43a1,1,0,0,1,.6-.44"/><path class="c720d39d-78eb-4a86-924d-ea9532cdd2a0" d="M20,39.36a1,1,0,0,1,.24,0,1,1,0,0,1,.24,1.91,1,1,0,0,1-.25,0,1,1,0,0,1-.83-1.47,1,1,0,0,1,.59-.44"/><path class="c720d39d-78eb-4a86-924d-ea9532cdd2a0" d="M18.81,37.33a1,1,0,0,1,.59-.45,1,1,0,0,1,.24,0,1,1,0,0,1,.94.73,1,1,0,0,1-.1.73,1,1,0,0,1-.6.45.89.89,0,0,1-.24,0,1,1,0,0,1-.83-1.46"/><path class="c720d39d-78eb-4a86-924d-ea9532cdd2a0" d="M0,60.77l4.13,1a20.34,20.34,0,0,0,4.9.63,26,26,0,0,0,5.12-.61l.61-.12a20,20,0,0,1,3.18-.44l.64,0a9.2,9.2,0,0,1,2,.2l.46.1.34.1a13.76,13.76,0,0,1,5.18,3l.62.49a20.09,20.09,0,0,0,8.51,4.49l4.13,1-1.52-14a5.45,5.45,0,0,1,0-1.31l.05-.41.09-.31A5.56,5.56,0,0,1,41,51.2l.31-.18a7,7,0,0,0,3.34-4.39l.64-2.46c-.79-.32-5.08-2.08-8.53-3.51l-.14-.06.11-.3a2.94,2.94,0,0,0,.09-.28,4.65,4.65,0,0,1,2.66-3,11,11,0,0,0,2.68-1.66l.06,0h.07a24.44,24.44,0,0,0,4.83.57l.66,0A13.64,13.64,0,0,0,43,33.27l-.06,0,0-.06a5.43,5.43,0,0,0-5.12-3.1l-.11-.3,2.16-.92.39-.17.89-.39.65-.29c4.75-2.09,9-4.11,9.69-4.47L51,21.38c-.12-.49-.23-.9-.36-1.36A37.24,37.24,0,0,0,40.21,2.61L37.5,0,32.93,9.1,32.78,9A21.32,21.32,0,0,0,19.9,4.4,19.64,19.64,0,0,0,10.09,7,19.18,19.18,0,0,0,.86,18.8a19.58,19.58,0,0,0,2,15l5.36,9.29a5.59,5.59,0,0,1,.56,4.13l-.09.36-.14.34a5.14,5.14,0,0,1-.53,1ZM38.37,33.28a1.13,1.13,0,1,1,1.13,1.13,1.13,1.13,0,0,1-1.13-1.13m-6.23-23L30.8,13a15,15,0,0,1-8.59,7.5c-1.33.45-2.65.86-3.93,1.22a7,7,0,0,0,1.89,13.71,6.72,6.72,0,0,0,1-.09l.14,0,2.24,9.18a11.55,11.55,0,0,1,0,4.73l-.39,1.56L10.13,47.55l0-.15a7,7,0,0,0-.74-5.05L4.06,33.06A18.31,18.31,0,0,1,19.9,5.6,18.61,18.61,0,0,1,32,10.24Zm-23,39.39a6.81,6.81,0,0,0,.62-1.17l.05-.13L23,51.65l-.44,1.74L8.95,50Zm27.67,7,0,.22L23.41,53.61l.44-1.73,13,3.22v.14a6.52,6.52,0,0,0,0,1.47M21.68,33.87a5.43,5.43,0,0,1-1.46.2A5.72,5.72,0,0,1,15,29.89a5.42,5.42,0,0,1,.34-4.15,6,6,0,0,1,3.38-2.8c1.32-.37,2.67-.79,4-1.25a16.16,16.16,0,0,0,9.39-8.17L37.8,2.19l1.43,1.45a35.91,35.91,0,0,1,10,16.75c.13.46.23.85.35,1.32L49.9,23l-1,.47a155.91,155.91,0,0,1-27.2,10.38m15.4,20.19,0,.15L24.07,51l.39-1.56a12.74,12.74,0,0,0,0-5.17L22.24,35.1l.14,0c2.3-.66,4.64-1.38,6.94-2.15l.27-.09-.06.27a6.23,6.23,0,0,0,0,2.55,6.81,6.81,0,0,0,4.14,4.85l10,4.27-.37,1.5a5.59,5.59,0,0,1-2.67,3.51l-.31.18a7,7,0,0,0-3.2,4.09M21.7,60.44l1.49-6L37,57.9l1.17,10.84L36,68.2a19.75,19.75,0,0,1-8.34-4.39,15.71,15.71,0,0,0-5.81-3.32ZM2.32,59.87l6.09-9,13.9,3.44-1.49,6-.15,0A13.07,13.07,0,0,0,18,59.9a21.32,21.32,0,0,0-4.06.5A24.81,24.81,0,0,1,9,61a18.68,18.68,0,0,1-4.56-.59Z"/><polygon class="c720d39d-78eb-4a86-924d-ea9532cdd2a0" points="33.48 65.51 32.97 60.45 33.77 60.75 34.27 65.84 33.48 65.51"/><polygon class="c720d39d-78eb-4a86-924d-ea9532cdd2a0" points="35.7 66.33 34.96 59.04 35.75 59.34 36.49 66.57 35.7 66.33"/><polygon class="c720d39d-78eb-4a86-924d-ea9532cdd2a0" points="7.18 59.13 10.22 54.82 11.02 55.06 8.09 59.24 7.18 59.13"/><polygon class="c720d39d-78eb-4a86-924d-ea9532cdd2a0" points="4.69 58.72 8.89 52.66 9.7 52.9 5.54 58.9 4.69 58.72"/><path class="c720d39d-78eb-4a86-924d-ea9532cdd2a0" d="M11.68,46.19a7.87,7.87,0,0,0-1-4.55L5.28,32.35A16.89,16.89,0,0,1,19.89,7a17.06,17.06,0,0,1,10.32,3.55l-.41.68a15.73,15.73,0,0,0-9.91-3.52A16.18,16.18,0,0,0,5.89,32l5.36,9.29a9.12,9.12,0,0,1,1.2,4.94v.14Z"/><path class="c720d39d-78eb-4a86-924d-ea9532cdd2a0" d="M7.17,31.26A14.71,14.71,0,0,1,19.89,9.2,14.87,14.87,0,0,1,29,12.39l.19.15a4.3,4.3,0,0,0-.44.66L28.56,13a13.91,13.91,0,0,0-15.65-1.16A14,14,0,0,0,7.78,30.9l4.89,8.47-.79,0Z"/><path class="c720d39d-78eb-4a86-924d-ea9532cdd2a0" d="M8.47,29a12.5,12.5,0,0,1,5.17-15.92,12.55,12.55,0,0,1,6.24-1.68,12.69,12.69,0,0,1,7.77,2.72l.35.27a3.28,3.28,0,0,0-.55.56l-.24-.27a11.74,11.74,0,0,0-13.22-1,11.79,11.79,0,0,0-4.86,15Z"/><path class="c720d39d-78eb-4a86-924d-ea9532cdd2a0" d="M29.66,28.27a42.34,42.34,0,0,0-2.24-5.62,2.89,2.89,0,0,0,.74-.4c.5,1.2,1.4,3.21,2.24,5.83Z"/><path class="c720d39d-78eb-4a86-924d-ea9532cdd2a0" d="M31.85,27.48a39.91,39.91,0,0,0-2.49-6.17,3.13,3.13,0,0,0,.71-.49,57.89,57.89,0,0,1,2.52,6.45Z"/><path class="c720d39d-78eb-4a86-924d-ea9532cdd2a0" d="M38.4,24.92a33.43,33.43,0,0,0-4.21-9.23l.09-.07c.16-.28.3-.52.43-.77a38.93,38.93,0,0,1,4.42,9.83Z"/><path class="c720d39d-78eb-4a86-924d-ea9532cdd2a0" d="M47,21.13A33.66,33.66,0,0,0,38.8,6.57l.44-.78a35.57,35.57,0,0,1,8.48,15.06l-.72.28Z"/><path class="c720d39d-78eb-4a86-924d-ea9532cdd2a0" d="M27.44,29a44.81,44.81,0,0,0-2.12-5.32,2.57,2.57,0,0,0,.78-.3c.45,1.11,1.28,3,2.08,5.43Z"/><path class="c720d39d-78eb-4a86-924d-ea9532cdd2a0" d="M34,26.65a38.5,38.5,0,0,0-2.87-7,3.74,3.74,0,0,0,.64-.61,49.75,49.75,0,0,1,3,7.34Z"/><path class="c720d39d-78eb-4a86-924d-ea9532cdd2a0" d="M42.72,23.07a32.64,32.64,0,0,0-6.16-12l.45-.8a35,35,0,0,1,6.43,12.56Z"/><path class="c720d39d-78eb-4a86-924d-ea9532cdd2a0" d="M44.87,22.11A32.77,32.77,0,0,0,37.69,8.81L38.14,8a34.84,34.84,0,0,1,7.45,13.83Z"/><path class="c720d39d-78eb-4a86-924d-ea9532cdd2a0" d="M36.23,25.8a36.52,36.52,0,0,0-3.42-8,4.56,4.56,0,0,0,.56-.73A42.76,42.76,0,0,1,37,25.57Z"/><path class="c720d39d-78eb-4a86-924d-ea9532cdd2a0" d="M40.57,24a33.43,33.43,0,0,0-5.15-10.67l.45-.82a36.25,36.25,0,0,1,5.41,11.24Z"/></g></g></svg>