<svg xmlns="http://www.w3.org/2000/svg" viewBox="0 0 118.78 46.35"><defs><style>.\30 18fcea2-da38-4aeb-99af-8945cc146629{fill:#016841;}</style></defs><title>ATMF_text</title><g id="30eec29c-db55-4bd7-948e-96d50d608618" data-name="Layer 2"><g id="2a02f76b-b979-45c1-815e-49824358252c" data-name="Layer 2"><path class="018fcea2-da38-4aeb-99af-8945cc146629" d="M19.76,12.53h-.42a.43.43,0,0,1-.42-.44V7.51h7v4.58a.43.43,0,0,1-.42.44h-.42V13H29.4v-.47H29a.42.42,0,0,1-.41-.44V.91A.42.42,0,0,1,29,.47h.41V0H25.07V.47h.42a.43.43,0,0,1,.42.44V5.16h-7V.91a.43.43,0,0,1,.42-.44h.42V0H15.42V.47h.42a.43.43,0,0,1,.42.44V12.07a.42.42,0,0,1-.42.46h-.42V13h4.34Z"/><path class="018fcea2-da38-4aeb-99af-8945cc146629" d="M81.24,3.17h.47V2.79a.44.44,0,0,1,.44-.44h3.37v9.74a.44.44,0,0,1-.44.44h-.4V13H89v-.47h-.45a.41.41,0,0,1-.38-.44V2.35h3.22a.44.44,0,0,1,.44.44v.38h.47V0H81.24Z"/><path class="018fcea2-da38-4aeb-99af-8945cc146629" d="M4.33,12.53h-.4c-.22,0-.33-.18-.24-.4l.55-1.48h6.22l.61,1.48a.27.27,0,0,1-.25.41h-.4V13h4.33v-.47h-.41a.67.67,0,0,1-.57-.41L9,0H5.89L1,12.12a.68.68,0,0,1-.58.4H0V13H4.33ZM7.45,2.43l2.19,6H5.17Z"/><path class="018fcea2-da38-4aeb-99af-8945cc146629" d="M35.86,12.53h-.41a.42.42,0,0,1-.41-.44V4.22l4.59,5.53,4.59-5.53v7.86a.43.43,0,0,1-.41.44h-.42V13h4.34v-.47H47.3a.43.43,0,0,1-.42-.44V.91A.43.43,0,0,1,47.3.47h.42V0H44.48L39.63,5.79,34.77,0H31.53V.47h.42a.43.43,0,0,1,.42.44V12.09a.43.43,0,0,1-.42.44h-.42V13h4.33Z"/><path class="018fcea2-da38-4aeb-99af-8945cc146629" d="M52.64,12.53h-.4c-.22,0-.33-.18-.24-.4l.68-1.72h6l.66,1.72c.09.22,0,.41-.25.41h-.4V13h4.33v-.47h-.41a.69.69,0,0,1-.58-.41L57.33,0H54.2L49.3,12.12a.68.68,0,0,1-.58.4h-.41V13h4.33ZM55.76,2.43l2.19,6H53.48Z"/><path class="018fcea2-da38-4aeb-99af-8945cc146629" d="M76.87,6.52C76.87,2.3,74,0,70.16,0H63.72V.47h.4a.43.43,0,0,1,.43.43V12.09a.44.44,0,0,1-.43.44h-.4V13h6.44c3.84,0,6.71-2.29,6.71-6.48m-9.63,4.12V2.35H70a3.8,3.8,0,0,1,4,4.16,3.78,3.78,0,0,1-4,4.12Z"/><path class="018fcea2-da38-4aeb-99af-8945cc146629" d="M118.37,12.53a.66.66,0,0,1-.56-.41L113.05,0h-3.13l-4.3,10.64H97.34V7.51h5.42a.42.42,0,0,1,.43.41v.41h.47v-4h-.47v.4a.42.42,0,0,1-.43.41H97.34V2.35h6.81a.42.42,0,0,1,.43.41v.4h.47V0H93.94V.47h.4a.44.44,0,0,1,.44.44V12.09a.44.44,0,0,1-.44.44h-.4V13h14.42v-.47H108c-.22,0-.32-.18-.24-.4l.55-1.48h6.22l.6,1.48c.09.22,0,.41-.24.41h-.4V13h4.34v-.47ZM109.2,8.41l2.28-6,2.19,6Z"/><path class="018fcea2-da38-4aeb-99af-8945cc146629" d="M48.65,33.64h.42a.43.43,0,0,1,.41.43V45.26a.43.43,0,0,1-.41.44h-.42v.47H53v-.47h-.41a.43.43,0,0,1-.42-.44V34.08a.42.42,0,0,1,.42-.43H53v-.47H48.65Z"/><path class="018fcea2-da38-4aeb-99af-8945cc146629" d="M91,43.42a.42.42,0,0,1-.44.41H84.7V34.08a.43.43,0,0,1,.42-.43h.41v-.47H81.19v.47h.42a.43.43,0,0,1,.42.43V45.26a.43.43,0,0,1-.42.44h-.42v.47H91.44V43H91Z"/><path class="018fcea2-da38-4aeb-99af-8945cc146629" d="M68.13,33.64h.34v-.47H64.14v.47h.37c.2,0,.3.18.22.41L61.07,43.7,57.54,34c-.08-.22,0-.41.22-.41h.37v-.47H53.79v.47h.34a.63.63,0,0,1,.5.4l4.75,12.12h3.36L67.63,34a.63.63,0,0,1,.5-.4"/><path class="018fcea2-da38-4aeb-99af-8945cc146629" d="M36.12,36.34h.47V36a.44.44,0,0,1,.44-.43H40.4v9.74a.44.44,0,0,1-.44.44h-.4v.47h4.34v-.47h-.45a.41.41,0,0,1-.38-.44V35.52H46.3a.44.44,0,0,1,.44.43v.38h.47V33.17H36.12Z"/><path class="018fcea2-da38-4aeb-99af-8945cc146629" d="M11.21,33.64h.4a.43.43,0,0,1,.43.43v4.25H3.39V35.52H8.26a.42.42,0,0,1,.44.41v.41h.47V33.17H0v.47H.4a.44.44,0,0,1,.43.43V45.26a.44.44,0,0,1-.43.44H0v.47H4.22v-.47h-.4a.44.44,0,0,1-.43-.44V40.68H12v4.58a.43.43,0,0,1-.43.44h-.4v.47H22.33V43h-.47v.41a.42.42,0,0,1-.43.41H14.61V40.68H20a.42.42,0,0,1,.44.41v.41h.47v-4h-.47v.4a.42.42,0,0,1-.44.41H14.61V35.52h6.82a.42.42,0,0,1,.43.41v.41h.47V33.17H11.21Z"/><path class="018fcea2-da38-4aeb-99af-8945cc146629" d="M33.18,37.34l.53.16,1.2-4.17-.53-.16-.07.26a.44.44,0,0,1-.23.27.42.42,0,0,1-.19,0,.45.45,0,0,1-.16,0,11.35,11.35,0,0,0-4-.72c-4.83,0-5.2,3-5.2,3.94,0,1.79,1,3,3,3.48l2.46.67c1.15.32,1.86.66,1.86,1.37s-.64,1.45-2.45,1.45A7.63,7.63,0,0,1,26,43a.44.44,0,0,1-.22-.49l.12-.45-.53-.14-1.08,4.2.53.14.1-.4a.44.44,0,0,1,.42-.33.43.43,0,0,1,.17,0,10.73,10.73,0,0,0,3.88.79c3.12,0,5.29-1.69,5.29-4.11s-1.87-3.13-3.5-3.59L28.76,38c-.91-.26-1.41-.54-1.41-1.26,0-.47.3-1.26,2.33-1.26a8.4,8.4,0,0,1,3.45.8.43.43,0,0,1,.23.51Z"/><path class="018fcea2-da38-4aeb-99af-8945cc146629" d="M79.62,45.29,74.87,33.17H71.73l-4.9,12.12a.67.67,0,0,1-.57.41h-.41v.47h4.33v-.47h-.4c-.22,0-.33-.18-.24-.41l.55-1.47h6.22l.6,1.47a.27.27,0,0,1-.25.41h-.4v.47H80.6v-.47h-.41a.68.68,0,0,1-.57-.41M71,41.58l2.28-6,2.2,6Z"/><path class="018fcea2-da38-4aeb-99af-8945cc146629" d="M24.88,29.77c3.88,0,5.94-2.64,5.94-5.69v-6.6a.43.43,0,0,1,.42-.43h.41v-.47H27.32V17h.42a.42.42,0,0,1,.41.43v6.41c0,2-1.07,3.4-3.27,3.4s-3.2-1.32-3.2-3.38V17.48a.43.43,0,0,1,.41-.43h.41v-.47H18.17V17h.41a.43.43,0,0,1,.42.43v6.6c0,3.3,2,5.69,5.88,5.69"/><path class="018fcea2-da38-4aeb-99af-8945cc146629" d="M49.83,17h.42v-.47H45.91V17h.41a.43.43,0,0,1,.42.43V28.66a.43.43,0,0,1-.42.44h-.41v.47h4.34v-.47h-.42a.43.43,0,0,1-.42-.44V17.48a.43.43,0,0,1,.42-.43"/><path class="018fcea2-da38-4aeb-99af-8945cc146629" d="M52.44,23.08a6.3,6.3,0,0,0,6.69,6.67,7.9,7.9,0,0,0,3.55-.88.44.44,0,0,1,.2,0,.45.45,0,0,1,.18,0,.43.43,0,0,1,.24.29l.11.41.52-.13-1.09-4.2-.51.13.13.51a.43.43,0,0,1-.19.48,5.86,5.86,0,0,1-3.07.92c-2.39,0-4-1.53-4-4.18s1.59-4.22,3.88-4.22a4.26,4.26,0,0,1,.65.05,2.23,2.23,0,0,0,1.67,3.72,2.68,2.68,0,0,0,2.68-2.68,2.65,2.65,0,0,0-.35-1.29s0,0,0,0l-.09-.12-.07-.11a5.06,5.06,0,0,0-4.46-2,6.31,6.31,0,0,0-6.69,6.71"/><path class="018fcea2-da38-4aeb-99af-8945cc146629" d="M15.77,17h.42v-.47H13L8.09,22.36,3.24,16.57H0V17H.42a.43.43,0,0,1,.42.44V28.66a.43.43,0,0,1-.42.44H0v.47H4.34v-.47H3.92a.43.43,0,0,1-.42-.44V20.79l4.58,5.53,4.59-5.53v7.87a.43.43,0,0,1-.42.44h-.41v.47h4.34v-.47h-.42a.43.43,0,0,1-.41-.44V17.48a.43.43,0,0,1,.41-.44"/><path class="018fcea2-da38-4aeb-99af-8945cc146629" d="M42.29,20.74l.53.16L44,16.73l-.53-.16-.07.26a.44.44,0,0,1-.23.27.45.45,0,0,1-.19,0,.47.47,0,0,1-.16,0,11.34,11.34,0,0,0-4-.72c-4.82,0-5.19,3-5.19,3.94,0,1.79,1,3,3,3.48l2.46.67c1.15.32,1.86.66,1.86,1.38s-.64,1.45-2.45,1.45a7.6,7.6,0,0,1-3.45-.91.43.43,0,0,1-.22-.49l.11-.46-.52-.14-1.09,4.2.53.14.1-.4a.42.42,0,0,1,.23-.28.42.42,0,0,1,.36,0,10.73,10.73,0,0,0,3.88.79c3.12,0,5.29-1.69,5.29-4.11s-1.87-3.13-3.5-3.59l-2.41-.69c-.92-.26-1.41-.54-1.41-1.26,0-.47.3-1.26,2.32-1.26a8.43,8.43,0,0,1,3.45.8.43.43,0,0,1,.23.51Z"/></g></g></svg>