<svg xmlns="http://www.w3.org/2000/svg" viewBox="0 0 55.12 89.22"><defs><style>.\38 5464fc1-2ecd-49e0-a41f-261a6ebd4f59{fill:#4ca769;}</style></defs><title>loc</title><g id="94cc31fa-354e-4897-af91-9d608a26756c" data-name="Layer 2"><g id="d10d7b60-2a6a-49b2-93e6-9b581212dade" data-name="Layer 2"><path class="85464fc1-2ecd-49e0-a41f-261a6ebd4f59" d="M27.56,89.22,2.91,39.88a27.56,27.56,0,0,1,0-24.64A27.42,27.42,0,0,1,13.47,3.81,27.72,27.72,0,0,1,27.56,0h0A27.72,27.72,0,0,1,41.64,3.81,27.42,27.42,0,0,1,52.21,15.24a27.56,27.56,0,0,1,0,24.64Zm0-84.1a22.6,22.6,0,0,0-11.48,3.1,22.32,22.32,0,0,0-8.59,9.31,22.44,22.44,0,0,0,0,20.06L27.56,77.77,47.63,37.59a22.44,22.44,0,0,0,0-20.06A22.32,22.32,0,0,0,39,8.22,22.6,22.6,0,0,0,27.56,5.12Z"/><path class="85464fc1-2ecd-49e0-a41f-261a6ebd4f59" d="M27.56,66,12.32,35.54A17,17,0,0,1,27.56,10.89h0a17.13,17.13,0,0,1,8.7,2.36,17.11,17.11,0,0,1,6.54,22.3Zm0-50a12,12,0,0,0-6.1,1.65A11.69,11.69,0,0,0,16.9,22.6a12,12,0,0,0,0,10.66L27.56,54.59,38.22,33.25a12,12,0,0,0,0-10.66,11.69,11.69,0,0,0-4.56-4.95A12,12,0,0,0,27.56,16Z"/><path class="85464fc1-2ecd-49e0-a41f-261a6ebd4f59" d="M27.56,43.18l-6-12a6.74,6.74,0,0,1,0-6,6.71,6.71,0,0,1,12,0,6.74,6.74,0,0,1,0,6Zm0-16.59a1.55,1.55,0,0,0-1.42.88,1.59,1.59,0,0,0,0,1.42l1.42,2.84L29,28.88a1.59,1.59,0,0,0,0-1.42A1.55,1.55,0,0,0,27.56,26.59Z"/></g></g></svg>