<svg xmlns="http://www.w3.org/2000/svg" viewBox="0 0 94 28.19">
    <defs>
        <style>.b4a00d16-40e7-4574-ab93-033efb98d00b{fill:#1b303d;}</style>
    </defs>
    <title>Spotify</title>
    <g id="c04f622c-0eb5-4025-8f80-735703242bbe" data-name="Layer 2">
        <g id="a2d394e2-3e8c-4a72-9a51-013d6eba005e" data-name="Layer 2">
            <g id="0ec43b70-64a9-4adf-9d17-40a6892f4018" data-name="Spoty">
                <path class="b4a00d16-40e7-4574-ab93-033efb98d00b"
                      d="M22.44,12.5c-4.54-2.7-12-2.95-16.38-1.63a1.32,1.32,0,1,1-.77-2.52c5-1.51,13.26-1.22,18.49,1.89a1.32,1.32,0,0,1-1.35,2.27Zm-.15,4a1.1,1.1,0,0,1-1.51.36,18.5,18.5,0,0,0-14-1.64,1.1,1.1,0,1,1-.64-2.1A20.57,20.57,0,0,1,21.92,15a1.1,1.1,0,0,1,.36,1.51Zm-1.72,3.84a.88.88,0,0,1-1.21.29C16,18.6,11.88,18.14,7,19.27a.88.88,0,1,1-.39-1.71c5.37-1.23,10-.7,13.69,1.57a.88.88,0,0,1,.29,1.21ZM14.1,0a14.1,14.1,0,1,0,14.1,14.1A14.1,14.1,0,0,0,14.1,0Z"/>
                <path class="b4a00d16-40e7-4574-ab93-033efb98d00b"
                      d="M38.35,13c-2.43-.58-2.87-1-2.87-1.84s.76-1.35,1.89-1.35a5.53,5.53,0,0,1,3.33,1.26.16.16,0,0,0,.12,0,.16.16,0,0,0,.11-.07l1.19-1.68a.16.16,0,0,0,0-.22,7.19,7.19,0,0,0-4.67-1.62C34.79,7.53,33,9.11,33,11.37c0,2.42,1.58,3.28,4.32,3.94,2.33.54,2.72,1,2.72,1.79s-.79,1.44-2.07,1.44A5.59,5.59,0,0,1,34,16.94a.17.17,0,0,0-.12,0,.16.16,0,0,0-.11.06l-1.33,1.59a.16.16,0,0,0,0,.22,7.94,7.94,0,0,0,5.37,2.06c2.83,0,4.66-1.55,4.66-3.94,0-2-1.21-3.14-4.17-3.86Z"/>
                <path class="b4a00d16-40e7-4574-ab93-033efb98d00b"
                      d="M51,15.73a2.63,2.63,0,0,1-2.56,2.9,2.71,2.71,0,0,1-2.61-2.9,2.71,2.71,0,0,1,2.61-2.9A2.66,2.66,0,0,1,51,15.73Zm-2.06-5.11a3.82,3.82,0,0,0-3.06,1.47V11a.16.16,0,0,0-.16-.16H43.53a.16.16,0,0,0-.16.16V23.36a.16.16,0,0,0,.16.16h2.18a.16.16,0,0,0,.16-.16V19.45a3.91,3.91,0,0,0,3.06,1.39c2.28,0,4.59-1.76,4.59-5.11s-2.31-5.11-4.59-5.11Z"/>
                <path class="b4a00d16-40e7-4574-ab93-033efb98d00b"
                      d="M59.44,18.65a2.77,2.77,0,0,1-2.74-2.92,2.71,2.71,0,0,1,2.7-2.88,2.78,2.78,0,0,1,2.76,2.92,2.71,2.71,0,0,1-2.72,2.88Zm0-8a5.12,5.12,0,1,0,5.22,5.11,5.14,5.14,0,0,0-5.22-5.11Z"/>
                <path class="b4a00d16-40e7-4574-ab93-033efb98d00b"
                      d="M70.93,10.81h-2.4V8.36a.16.16,0,0,0-.16-.16H66.2a.16.16,0,0,0-.16.16v2.45H65a.16.16,0,0,0-.16.16v1.87A.16.16,0,0,0,65,13h1v4.85c0,2,1,3,2.9,3a4,4,0,0,0,2-.51.16.16,0,0,0,.08-.14V18.37a.16.16,0,0,0-.23-.14,2.75,2.75,0,0,1-1.28.31c-.7,0-1-.32-1-1V13h2.4a.16.16,0,0,0,.16-.16V11a.16.16,0,0,0-.16-.16Z"/>
                <path class="b4a00d16-40e7-4574-ab93-033efb98d00b"
                      d="M79.29,10.82v-.3c0-.89.34-1.28,1.1-1.28a3.68,3.68,0,0,1,1.23.23.16.16,0,0,0,.21-.15V7.48a.16.16,0,0,0-.11-.15,6,6,0,0,0-1.81-.26c-2,0-3.08,1.13-3.08,3.28v.46h-1a.16.16,0,0,0-.16.16v1.88a.16.16,0,0,0,.16.16h1v7.48a.16.16,0,0,0,.16.16h2.18a.16.16,0,0,0,.16-.16V13h2l3.12,7.47c-.35.79-.7.94-1.18.94a2.51,2.51,0,0,1-1.2-.34.16.16,0,0,0-.13,0,.16.16,0,0,0-.09.09l-.74,1.62a.16.16,0,0,0,.07.21,4.59,4.59,0,0,0,2.33.6c1.61,0,2.5-.75,3.28-2.77L90.6,11a.16.16,0,0,0-.15-.22H88.18a.16.16,0,0,0-.15.11l-2.32,6.64-2.55-6.64a.16.16,0,0,0-.15-.1Z"/>
                <path class="b4a00d16-40e7-4574-ab93-033efb98d00b"
                      d="M74.45,10.81H72.27a.16.16,0,0,0-.16.16v9.51a.16.16,0,0,0,.16.16h2.18a.16.16,0,0,0,.16-.16V11a.16.16,0,0,0-.16-.16Z"/>
                <path class="b4a00d16-40e7-4574-ab93-033efb98d00b"
                      d="M73.37,6.48A1.56,1.56,0,1,0,74.93,8a1.56,1.56,0,0,0-1.56-1.56Z"/>
                <path class="b4a00d16-40e7-4574-ab93-033efb98d00b"
                      d="M92.55,11.76h-.4v.51h.4c.2,0,.32-.1.32-.25s-.12-.25-.32-.25Zm.26.73.43.61h-.37l-.39-.56h-.34v.56h-.31V11.48h.72c.37,0,.62.19.62.51a.48.48,0,0,1-.37.49Zm-.34-1.54a1.38,1.38,0,1,0,1.37,1.38,1.37,1.37,0,0,0-1.37-1.38Zm0,2.92A1.54,1.54,0,1,1,94,12.33a1.53,1.53,0,0,1-1.54,1.54Z"/>
            </g>
        </g>
    </g>
</svg>