<svg xmlns="http://www.w3.org/2000/svg" viewBox="0 0 110.45 24.66"><defs><style>.\39 bb8dfb9-ab77-4742-a713-05fe8bf4ed13{fill:#1b303d;}</style></defs><title>YouTube</title><g id="438393cf-a759-4c7b-8335-f40cc1809e09" data-name="Layer 2"><g id="ce36ef53-e90b-4702-962a-1c2e4751fce8" data-name="Layer 2"><g id="e24cbead-4879-43cb-b974-58442468f0ea" data-name="YouTube"><path class="9bb8dfb9-ab77-4742-a713-05fe8bf4ed13" d="M34.49,3.85A4.41,4.41,0,0,0,31.37.74C28.63,0,17.61,0,17.61,0S6.6,0,3.85.74A4.41,4.41,0,0,0,.74,3.85,45.84,45.84,0,0,0,0,12.33a45.84,45.84,0,0,0,.74,8.48,4.41,4.41,0,0,0,3.11,3.11c2.75.74,13.76.74,13.76.74s11,0,13.76-.74a4.41,4.41,0,0,0,3.11-3.11,45.84,45.84,0,0,0,.74-8.48A45.84,45.84,0,0,0,34.49,3.85ZM14.09,17.61V7l9.15,5.28Z"/><path class="9bb8dfb9-ab77-4742-a713-05fe8bf4ed13" d="M51.13,22.43a3.84,3.84,0,0,1-1.49-2.19,14.34,14.34,0,0,1-.44-4V14a13,13,0,0,1,.5-4,4,4,0,0,1,1.57-2.2,5.1,5.1,0,0,1,2.81-.69,4.79,4.79,0,0,1,2.75.71,4,4,0,0,1,1.51,2.2,13.52,13.52,0,0,1,.48,4v2.24a13.75,13.75,0,0,1-.47,4,3.9,3.9,0,0,1-1.51,2.19,5.07,5.07,0,0,1-2.83.69A5.11,5.11,0,0,1,51.13,22.43ZM55,20a7.53,7.53,0,0,0,.29-2.47V12.73A7.45,7.45,0,0,0,55,10.3a1,1,0,0,0-1-.77,1,1,0,0,0-1,.77,7.43,7.43,0,0,0-.29,2.43v4.81A7.84,7.84,0,0,0,53,20a1,1,0,0,0,1,.76A1,1,0,0,0,55,20Z"/><path class="9bb8dfb9-ab77-4742-a713-05fe8bf4ed13" d="M104.63,16.32v.78a20.51,20.51,0,0,0,.09,2.23,2.11,2.11,0,0,0,.37,1.08,1,1,0,0,0,.86.34,1.08,1.08,0,0,0,1.07-.6,5.27,5.27,0,0,0,.31-2l3,.18a4.75,4.75,0,0,1,0,.55,4.1,4.1,0,0,1-1.17,3.2,4.77,4.77,0,0,1-3.31,1.06,3.94,3.94,0,0,1-3.6-1.61,9.44,9.44,0,0,1-1-5v-2.7a9.34,9.34,0,0,1,1.07-5.08A4.08,4.08,0,0,1,106,7.15a4.84,4.84,0,0,1,2.75.66,3.52,3.52,0,0,1,1.35,2,14.75,14.75,0,0,1,.39,3.83v2.64Zm.44-6.5a2.13,2.13,0,0,0-.35,1.07,20.85,20.85,0,0,0-.09,2.25v1.11h2.54V13.15a18.81,18.81,0,0,0-.1-2.25,2.16,2.16,0,0,0-.37-1.08,1,1,0,0,0-.82-.31A1,1,0,0,0,105.07,9.82Z"/><path class="9bb8dfb9-ab77-4742-a713-05fe8bf4ed13" d="M42.66,16l-4-14.28h3.45l1.39,6.47q.53,2.39.78,4.08h.1q.18-1.21.78-4.06l1.44-6.5H50.1L46.09,16v6.85H42.66Z"/><path class="9bb8dfb9-ab77-4742-a713-05fe8bf4ed13" d="M70,7.44V22.89H67.33L67,21H67a3.56,3.56,0,0,1-3.33,2.14,2.61,2.61,0,0,1-2.27-1A5.41,5.41,0,0,1,60.63,19V7.44H64.1V18.78a3.46,3.46,0,0,0,.23,1.47.78.78,0,0,0,.76.44,1.54,1.54,0,0,0,.87-.28,1.72,1.72,0,0,0,.62-.71V7.44Z"/><path class="9bb8dfb9-ab77-4742-a713-05fe8bf4ed13" d="M87.88,7.44V22.89H85.16L84.86,21h-.08a3.56,3.56,0,0,1-3.33,2.14,2.61,2.61,0,0,1-2.27-1A5.41,5.41,0,0,1,78.46,19V7.44h3.48V18.78a3.46,3.46,0,0,0,.23,1.47.78.78,0,0,0,.76.44,1.54,1.54,0,0,0,.87-.28,1.72,1.72,0,0,0,.62-.71V7.44Z"/><path class="9bb8dfb9-ab77-4742-a713-05fe8bf4ed13" d="M79.49,4.55H76V22.89h-3.4V4.55H69.19V1.75h10.3Z"/><path class="9bb8dfb9-ab77-4742-a713-05fe8bf4ed13" d="M99.38,9.91a4,4,0,0,0-1-2.12,2.74,2.74,0,0,0-1.94-.65,3.22,3.22,0,0,0-1.79.54,3.68,3.68,0,0,0-1.28,1.42h0V1H90V22.88h2.87l.35-1.46h.08a3,3,0,0,0,1.21,1.23,3.58,3.58,0,0,0,1.79.45,2.74,2.74,0,0,0,2.59-1.62,11.69,11.69,0,0,0,.83-5.08V14A20.29,20.29,0,0,0,99.38,9.91Zm-3.19,6.3a19.54,19.54,0,0,1-.14,2.64,2.86,2.86,0,0,1-.47,1.36,1.08,1.08,0,0,1-.88.4,1.61,1.61,0,0,1-.79-.2,1.52,1.52,0,0,1-.59-.6V11a2.2,2.2,0,0,1,.6-1,1.34,1.34,0,0,1,.93-.4.94.94,0,0,1,.82.42,3.2,3.2,0,0,1,.4,1.4,26.07,26.07,0,0,1,.11,2.8Z"/></g></g></g></svg>